<svg width="692" height="217" viewBox="0 0 692 217" fill="none" xmlns="http://www.w3.org/2000/svg">
<path fill-rule="evenodd" clip-rule="evenodd" d="M14.6814 0.271484C15.4519 0.271484 16.2225 0.271484 16.993 0.271484C56.6751 0.271484 96.3572 0.271484 136.039 0.271484C138.351 0.271484 141.048 0.271484 143.745 1.04291C144.9 1.81434 146.441 2.20006 147.597 3.3572C149.909 5.67148 151.45 8.7572 151.45 12.2286C151.45 53.1143 151.45 94 151.45 134.886C151.45 140.286 147.597 144.914 142.589 146.457C141.433 146.843 140.277 146.843 139.121 146.843C97.8982 146.843 56.2898 146.843 15.0667 146.843C12.7551 146.843 10.4435 145.686 8.51719 144.529C5.82035 142.6 4.2793 139.129 4.2793 135.657C4.2793 96.3143 4.2793 56.5858 4.2793 17.2429C4.2793 15.3143 4.2793 13.3858 4.2793 11.4572C4.2793 8.37149 5.82035 5.28577 8.13193 3.3572C10.0582 1.42863 12.3698 0.271484 14.6814 0.271484ZM46.273 18.4001C40.8793 27.6572 35.8709 36.5286 30.4772 45.7858C62.0688 45.7858 94.0456 45.7858 125.637 45.7858C121.785 38.8429 117.932 32.2858 114.079 25.3429C112.923 23.0286 111.382 20.7143 110.227 18.4001C109.456 18.4001 108.686 18.4001 107.915 18.4001C87.1109 18.4001 66.6919 18.4001 46.273 18.4001ZM78.2498 128.329C82.4877 128.329 86.7256 128.329 91.3488 128.329C97.513 128.329 103.677 128.329 109.841 128.329C120.629 110.2 131.031 91.6858 141.818 73.5572C136.425 64.3001 131.031 55.0429 125.637 45.7858C109.841 73.1715 94.0456 100.943 78.2498 128.329ZM30.0919 46.5572C25.0835 55.4286 19.6898 64.3001 14.6814 73.5572C18.1488 79.7286 21.6161 85.9001 25.0835 91.6858C32.0182 104.029 39.3382 116.371 46.273 128.329C56.6751 128.329 67.0772 128.329 77.4793 128.329C75.553 124.857 73.6267 121.386 71.7003 118.3C65.1509 106.729 58.2161 95.1572 51.6667 83.5858C44.3467 71.2429 37.0267 58.9001 30.0919 46.5572Z" fill="white"/>
<path fill-rule="evenodd" clip-rule="evenodd" d="M186.509 18.4004L219.256 78.1861L153.762 147.229H169.558L233.126 79.729L199.993 18.4004C199.993 18.4004 187.28 18.4004 186.509 18.4004Z" fill="white"/>
<path fill-rule="evenodd" clip-rule="evenodd" d="M205.387 18.4004H246.61L257.397 38.0718L277.431 18.0146H292.841L237.749 75.4861L205.387 18.4004Z" fill="white"/>
<path fill-rule="evenodd" clip-rule="evenodd" d="M300.547 18.4004H333.294C333.294 18.4004 286.292 39.6147 282.054 81.2718C277.816 122.929 305.941 141.443 305.941 141.443L313.646 146.072H277.431L241.602 80.1147L300.547 18.4004Z" fill="white"/>
<path fill-rule="evenodd" clip-rule="evenodd" d="M236.208 85.9004L270.112 146.843H257.013L244.299 123.315L222.339 146.843H176.107L236.208 85.9004Z" fill="white"/>
<path fill-rule="evenodd" clip-rule="evenodd" d="M414.584 20.7142L400.714 62.3713C400.714 62.3713 390.312 56.5856 372.59 56.9713C354.868 57.357 346.007 75.8713 346.007 75.8713C346.007 75.8713 335.605 115.214 385.304 104.028L371.049 146.457C371.049 146.457 335.22 157.643 305.169 129.1C275.119 100.557 299.005 57.357 299.005 57.357C299.005 57.357 334.064 -2.04295 414.584 20.7142Z" fill="white"/>
<path fill-rule="evenodd" clip-rule="evenodd" d="M428.454 17.6289H473.145L480.465 81.2718L514.368 17.6289H556.747L549.042 146.843H507.048L509.359 94.0003L481.235 146.843H452.341L446.176 94.386L428.069 146.843H383.764L428.454 17.6289Z" fill="white"/>
<path fill-rule="evenodd" clip-rule="evenodd" d="M645.357 65.0716L686.195 49.2573C686.195 49.2573 683.113 28.043 647.283 16.4716C609.527 4.12873 577.165 31.5144 577.165 31.5144C577.165 31.5144 555.205 50.4144 553.279 68.543C551.353 86.6716 541.336 131.8 604.904 148.386C604.904 148.386 697.367 162.657 691.203 72.0144H623.782L617.233 102.486C619.544 102.486 636.881 102.486 640.734 102.486C640.348 103.257 635.725 109.814 621.856 110.2C619.159 110.2 614.921 109.814 612.609 108.272C594.117 96.7002 599.511 80.1144 599.896 78.1859C601.437 67.0002 609.527 58.1287 620.7 55.8144C629.946 54.6573 639.963 56.9716 645.357 65.0716Z" fill="white"/>
<path d="M499.598 216.811C495.816 216.811 492.727 216.051 490.329 214.531C487.966 212.978 486.362 210.767 485.518 207.896L494.28 203.389C495.36 206.09 497.42 207.441 500.459 207.441C502.857 207.441 504.173 206.816 504.41 205.567C504.545 204.756 504.123 204.131 503.144 203.692C502.603 203.422 502.131 203.22 501.725 203.085C501.286 202.916 500.054 202.528 498.028 201.92C491.747 199.759 489.097 195.876 490.076 190.27C490.616 187.13 492.17 184.581 494.736 182.622C497.268 180.698 500.358 179.735 504.005 179.735C507.044 179.735 509.644 180.444 511.805 181.863C513.966 183.281 515.603 185.324 516.718 187.991L508.158 192.55C507.28 190.254 505.676 189.105 503.346 189.105C501.557 189.105 500.544 189.713 500.307 190.929C500.138 191.705 500.442 192.313 501.219 192.752C502.097 193.292 503.616 193.917 505.777 194.626C508.58 195.572 510.758 196.737 512.311 198.121C514.337 199.911 515.046 202.663 514.438 206.377C513.831 209.787 512.244 212.387 509.677 214.177C507.111 215.933 503.751 216.811 499.598 216.811Z" fill="white"/>
<path d="M555.598 216.811C551.816 216.811 548.727 216.051 546.329 214.531C543.966 212.978 542.362 210.767 541.518 207.896L550.28 203.389C551.36 206.09 553.42 207.441 556.459 207.441C558.857 207.441 560.173 206.816 560.41 205.567C560.545 204.756 560.123 204.131 559.144 203.692C558.603 203.422 558.131 203.22 557.725 203.085C557.286 202.916 556.054 202.528 554.028 201.92C547.747 199.759 545.097 195.876 546.076 190.27C546.616 187.13 548.17 184.581 550.736 182.622C553.268 180.698 556.358 179.735 560.005 179.735C563.044 179.735 565.644 180.444 567.805 181.863C569.966 183.281 571.603 185.324 572.718 187.991L564.158 192.55C563.28 190.254 561.676 189.105 559.346 189.105C557.557 189.105 556.544 189.713 556.307 190.929C556.138 191.705 556.442 192.313 557.219 192.752C558.097 193.292 559.616 193.917 561.777 194.626C564.58 195.572 566.758 196.737 568.311 198.121C570.337 199.911 571.046 202.663 570.438 206.377C569.831 209.787 568.244 212.387 565.677 214.177C563.111 215.933 559.751 216.811 555.598 216.811Z" fill="white"/>
<path d="M599.119 216L605.349 180.546H615.479L609.249 216H599.119Z" fill="white"/>
<path d="M670.27 216H659.684L659.279 211.442H649.048L647.022 216H635.828L653.353 180.546H665.205L670.27 216ZM657.506 192.448L652.644 203.338H658.519L657.506 192.448Z" fill="white"/>
<path d="M146.27 216H135.684L135.279 211.442H125.048L123.022 216H111.828L129.353 180.546H141.205L146.27 216ZM133.506 192.448L128.644 203.338H134.519L133.506 192.448Z" fill="white"/>
<path d="M190.834 180.546L186.327 206.174H197.976L196.254 216H174.475L180.704 180.546H190.834Z" fill="white"/>
<path d="M6.82167 180.546H21.51C26.1697 180.546 29.884 182.336 32.6528 185.915C35.4217 189.494 36.384 193.782 35.5398 198.78C34.6282 203.912 32.3489 208.065 28.7022 211.239C25.0892 214.413 20.6152 216 15.2801 216H0.591797L6.82167 180.546ZM25.5113 198.273C25.9165 195.943 25.5788 194.052 24.4983 192.6C23.4178 191.115 21.8476 190.372 19.7879 190.372H15.736L12.9502 206.174H17.0022C19.0619 206.174 20.8853 205.448 22.4723 203.997C24.0593 202.511 25.0723 200.603 25.5113 198.273Z" fill="white"/>
<path d="M91.2265 180.546L89.6057 189.764H76.6901L76.0317 193.613H87.681L86.0603 202.73H74.4109L73.7018 206.681H86.8707L85.2499 216H61.9512L68.181 180.546H91.2265Z" fill="white"/>
<path d="M254.226 180.546L252.606 189.764H239.69L239.032 193.613H250.681L249.06 202.73H237.411L236.702 206.681H249.871L248.25 216H224.951L231.181 180.546H254.226Z" fill="white"/>
<path d="M309.304 193.461C308.528 197.817 306.164 200.991 302.213 202.983L306.772 215.95H296.642L292.995 204.807H289.754L287.778 215.95H277.648L283.929 180.495H298.111C301.791 180.495 304.746 181.728 306.974 184.193C309.203 186.624 309.98 189.713 309.304 193.461ZM296.439 189.815H292.387L291.222 196.399H295.376C296.355 196.433 297.182 196.163 297.858 195.589C298.567 195.015 299.006 194.204 299.174 193.157C299.343 192.111 299.174 191.3 298.668 190.726C298.195 190.118 297.452 189.815 296.439 189.815Z" fill="white"/>
<path d="M403.304 193.461C402.528 197.817 400.164 200.991 396.213 202.983L400.772 215.95H390.642L386.995 204.807H383.754L381.778 215.95H371.648L377.929 180.495H392.111C395.791 180.495 398.746 181.728 400.974 184.193C403.203 186.624 403.98 189.713 403.304 193.461ZM390.439 189.815H386.387L385.222 196.399H389.376C390.355 196.433 391.182 196.163 391.858 195.589C392.567 195.015 393.006 194.204 393.174 193.157C393.343 192.111 393.174 191.3 392.668 190.726C392.195 190.118 391.452 189.815 390.439 189.815Z" fill="white"/>
<path d="M442.746 216.811C438.356 216.811 434.963 215.612 432.565 213.215C430.168 210.817 429.29 207.795 429.932 204.148L434.085 180.546H444.215L440.264 203.034C439.825 205.668 441.024 206.985 443.86 206.985C446.764 206.985 448.436 205.668 448.875 203.034L452.825 180.546H462.955L458.802 204.148C458.093 208.133 456.269 211.239 453.332 213.468C450.462 215.697 446.933 216.811 442.746 216.811Z" fill="white"/>
</svg>
