<svg width="220" height="44" viewBox="0 0 220 44" fill="none" xmlns="http://www.w3.org/2000/svg">
<g clip-path="url(#clip0_2795_16196)">
<path fill-rule="evenodd" clip-rule="evenodd" d="M21.0679 3.63498C11.2797 3.73064 3.44922 12.0524 3.54244 22.1915C3.54244 26.6872 5.12719 30.8002 7.73736 33.9567H13.3306C13.7967 33.7654 14.2628 33.5741 14.6357 33.0959L18.178 24.2959C18.178 24.2002 18.2713 24.1046 18.2713 24.1046C18.2713 23.6263 18.178 23.2437 17.8052 23.0524H14.9153C14.7289 23.0524 14.5424 23.0524 14.356 22.9567H14.2628C13.3306 22.5741 12.7713 21.4263 13.1441 20.3741L15.9407 13.3915L17.6187 8.89585C17.9916 7.74803 19.017 7.07846 20.2289 7.07846H24.4238H31.2289C28.3391 4.87846 24.8899 3.63498 21.0679 3.63498ZM21.3475 40.3654C17.2458 40.3654 13.4238 38.9306 10.3475 36.5393H17.0594L22.8391 36.635C23.5848 36.635 24.3306 36.1567 24.6102 35.3915L29.0848 23.5306C29.2713 23.148 29.2713 22.6698 29.178 22.2872C29.0848 21.9046 28.8052 21.5219 28.5255 21.3306C28.2458 21.1393 27.873 21.0437 27.5933 20.8524C26.9407 20.6611 26.2882 20.6611 25.6357 20.6611C24.517 20.6611 24.3306 19.9915 24.517 19.2263L24.7967 18.5567C24.7967 18.5567 24.7967 18.4611 24.8899 18.4611L27.7797 11.0959C27.7797 11.0002 27.873 10.9045 27.873 10.8089C28.3391 9.94803 29.0848 9.66107 29.7374 9.56542H30.7628H34.1187C37.1018 12.8176 38.9662 17.2176 38.9662 22.0002C38.9662 26.3046 38.1272 29.0785 36.0763 32.235L38.4069 33.8611C40.8306 30.2263 41.856 26.7828 41.856 21.9046C41.7628 10.235 32.534 0.765418 21.2543 0.86107C9.69498 0.956722 0.652611 10.5219 0.745831 22.1915C0.839052 33.8611 10.0679 43.3306 21.3475 43.235C25.7289 43.235 29.7374 41.7046 33.0001 39.3132L31.3221 37.0176C28.6187 39.0263 25.1696 40.2698 21.3475 40.3654ZM36.2628 33.4785C36.4492 33.6698 36.5424 33.8611 36.7289 34.0524C37.0085 34.435 37.0085 35.0089 36.7289 35.3915L34.678 37.6872C34.3052 38.0698 33.8391 38.0698 33.4662 37.7828C33.2797 37.5915 33.0001 37.4002 32.8136 37.2089C32.0679 36.1567 32.1611 34.8176 33.0933 33.8611C34.0255 32.8089 35.1441 32.5219 36.2628 33.4785Z" fill="white"/>
<path d="M197.348 31.661V14.061H203.687L214.593 24.7741H212.449V14.061H220V31.5654H213.102L201.915 20.8523H204.899V31.5654H197.348V31.661Z" fill="white"/>
<path d="M143.373 31.661V14.061H149.712L157.543 22.9567H154.466L162.11 14.061H168.449L168.543 31.5654H161.458L161.365 22.0958H163.043L157.449 29.9393H154.373L148.593 22.0958H150.551V31.5654H143.373V31.661Z" fill="white"/>
<path d="M92.2881 31.6611L101.89 14.1567H109.161L118.763 31.6611H111.119L104.034 16.9307H106.924L99.7457 31.6611H92.2881ZM97.9745 28.6002L99.8389 24.2959H110L111.864 28.6002H97.9745Z" fill="white"/>
<path d="M169.661 31.6611L179.263 14.1567H186.534L196.136 31.6611H188.492L181.407 16.9307H184.297L177.212 31.6611H169.661ZM175.348 28.6002L177.212 24.2959H187.373L189.237 28.6002H175.348Z" fill="white"/>
<path d="M83.4321 14.061H91.3558V31.5654H83.4321V14.061ZM76.9066 31.661H68.9829V14.061H76.9066V31.661ZM84.271 25.4436H76.1609V20.2784H84.271V25.4436Z" fill="white"/>
<path d="M60.1273 19.8002C60.0341 19.2263 59.7544 18.748 59.1951 18.4611C58.6358 18.1741 57.7968 17.9828 56.6781 17.9828C55.9324 17.9828 55.3731 18.0785 54.907 18.1741C54.4409 18.2698 54.1612 18.4611 53.8815 18.6524C53.6951 18.8437 53.5087 19.035 53.5087 19.322C53.5087 19.5133 53.5086 19.7046 53.6951 19.8959C53.7883 20.0872 54.068 20.1828 54.3476 20.3741C54.6273 20.4698 55.0002 20.6611 55.4663 20.7567C55.9324 20.8524 56.3985 20.948 57.051 21.0437L59.1951 21.3307C60.5934 21.522 61.8053 21.8089 62.8307 22.1915C63.8561 22.5741 64.6951 22.9567 65.3476 23.3393C66.0002 23.8176 66.4663 24.2959 66.7459 24.8698C67.0256 25.4437 67.212 26.0176 67.212 26.6872C67.212 27.835 66.7459 28.7915 65.907 29.6524C65.068 30.4176 63.8561 31.0872 62.2714 31.4698C60.6866 31.8524 58.8222 32.1393 56.6781 32.1393C54.4409 32.1393 52.4832 31.948 50.8053 31.4698C49.1273 30.9915 47.8222 30.322 46.89 29.3654C45.9578 28.4089 45.4917 27.2611 45.4917 25.7307H52.1103C52.1103 26.3046 52.39 26.6872 52.6697 27.0698C53.0425 27.4524 53.5086 27.7393 54.1612 27.9307C54.8137 28.122 55.5595 28.2176 56.4917 28.2176C57.2375 28.2176 57.89 28.122 58.3561 28.0263C58.8222 27.9307 59.1951 27.7393 59.4748 27.548C59.7544 27.3567 59.8476 27.0698 59.8476 26.7828C59.8476 26.4959 59.7544 26.3046 59.4748 26.1133C59.1951 25.922 58.8222 25.7307 58.2629 25.5393C57.7036 25.348 56.9578 25.2524 56.0256 25.0611L53.4154 24.6785C51.1781 24.2959 49.3137 23.8176 48.0086 22.9567C46.7036 22.1915 46.051 21.0437 46.051 19.7046C46.051 18.5567 46.5171 17.6002 47.3561 16.7393C48.2883 15.8785 49.5002 15.2089 51.0849 14.8263C52.6697 14.348 54.4409 14.1567 56.4917 14.1567C58.5425 14.1567 60.407 14.348 61.8985 14.8263C63.39 15.3046 64.6019 15.9741 65.4409 16.835C66.2798 17.6959 66.6527 18.6524 66.6527 19.8002H60.1273Z" fill="white"/>
<path d="M118.763 22.9567C118.763 20.1828 119.602 17.9828 121.373 16.3567C123.051 14.8263 125.568 14.061 128.737 14.061H140.576V19.4176H131.534C128.085 19.4176 126.407 20.661 126.407 23.0523C126.407 25.4436 128.085 26.5915 131.534 26.5915H140.576V31.8523H128.737C125.568 31.8523 123.144 31.0871 121.373 29.461C119.695 28.0263 118.763 25.8263 118.763 22.9567Z" fill="white"/>
</g>
<defs>
<clipPath id="clip0_2795_16196">
<rect width="220" height="44" fill="white"/>
</clipPath>
</defs>
</svg>
