<svg width="35" height="40" viewBox="0 0 35 40" fill="none" xmlns="http://www.w3.org/2000/svg">
<path d="M30.6 3.19922H4C1.792 3.19922 0 4.99122 0 7.19922V32.7992C0 35.0072 1.792 36.7992 4 36.7992H30.6C32.808 36.7992 34.6 35.0072 34.6 32.7992V7.19922C34.6 4.99122 32.808 3.19922 30.6 3.19922ZM26.976 26.3992L23.992 26.3912C23.992 26.3912 23.928 26.3992 23.824 26.3992C23.584 26.3992 23.088 26.3352 22.504 25.9352C21.456 25.2072 20.456 23.3992 19.664 23.3992C19.608 23.3992 19.56 23.4072 19.512 23.4232C18.824 23.6392 18.616 24.3272 18.616 25.1672C18.616 25.4632 18.408 25.5992 17.848 25.5992H16.304C14.576 25.5992 12.904 25.5592 11.024 23.5032C8.256 20.4712 5.664 15.0792 5.664 15.0792C5.664 15.0792 5.52 14.7672 5.672 14.5832C5.816 14.4152 6.152 14.3992 6.28 14.3992C6.312 14.3992 6.328 14.3992 6.328 14.3992H9.528C9.528 14.3992 9.824 14.4552 10.04 14.6152C10.224 14.7512 10.32 14.9992 10.32 14.9992C10.32 14.9992 10.864 16.0552 11.544 17.2472C12.688 19.2152 13.304 19.8712 13.744 19.8712C13.816 19.8712 13.888 19.8552 13.96 19.8152C14.616 19.4552 14.424 16.5432 14.424 16.5432C14.424 16.5432 14.432 15.4872 14.088 15.0232C13.824 14.6552 13.32 14.5512 13.096 14.5192C12.92 14.4952 13.208 14.0792 13.592 13.8872C14.088 13.6472 14.912 13.5992 15.904 13.5992H16.384C17.32 13.6152 17.344 13.7112 17.712 13.7992C18.816 14.0632 18.44 15.0952 18.44 17.5672C18.44 18.3592 18.296 19.4712 18.864 19.8472C18.904 19.8712 18.96 19.8872 19.032 19.8872C19.4 19.8872 20.192 19.4152 21.456 17.2792C22.16 16.0632 22.704 14.8552 22.704 14.8552C22.704 14.8552 22.824 14.6392 23.008 14.5272C23.184 14.4232 23.184 14.4232 23.416 14.4232H23.44C23.696 14.4232 26.24 14.3992 26.8 14.3992H26.864C27.4 14.3992 27.888 14.4072 27.976 14.7352C28.104 15.2312 27.584 16.1192 26.216 17.9592C23.96 20.9752 23.704 20.7512 25.576 22.4952C27.368 24.1592 27.736 24.9672 27.8 25.0712C28.544 26.3032 26.976 26.3992 26.976 26.3992Z" fill="white"/>
</svg>
