<svg width="44" height="40" viewBox="0 0 44 34" fill="none" xmlns="http://www.w3.org/2000/svg">
<path d="M42.451 4.75243C42.1657 3.5409 41.2554 2.56914 40.0397 2.1838C36.8181 1.16157 29.8291 0.173828 21.875 0.173828C13.9209 0.173828 6.93185 1.16157 3.7095 2.1838C2.49375 2.56914 1.58341 3.5409 1.2982 4.75243C0.759736 7.04005 0 11.2821 0 17.0008C0 22.7194 0.759736 26.9615 1.29904 29.2491C1.58425 30.4606 2.49459 31.4324 3.71034 31.8177C6.93185 32.8399 13.9209 33.8277 21.875 33.8277C29.8291 33.8277 36.8181 32.8399 40.0405 31.8177C41.2562 31.4324 42.1666 30.4606 42.4518 29.2491C42.9903 26.9615 43.75 22.7194 43.75 17.0008C43.75 11.2821 42.9903 7.04005 42.451 4.75243ZM17.6683 23.7315V10.27L30.1681 17.0008L17.6683 23.7315Z" fill="white"/>
</svg>
