<svg width="850" height="600" viewBox="0 0 850 600" fill="none" xmlns="http://www.w3.org/2000/svg">
<g clip-path="url(#clip0_1671_62082)">
<rect width="850" height="600" rx="4" fill="white"/>
<mask id="mask0_1671_62082" style="mask-type:alpha" maskUnits="userSpaceOnUse" x="0" y="0" width="850" height="600">
<path d="M0 4C0 1.79086 1.79086 0 4 0H846C848.209 0 850 1.79086 850 4V600H0V4Z" fill="white"/>
</mask>
<g mask="url(#mask0_1671_62082)">
<path d="M95.1356 266.038L82.9949 246.922L93.3578 241.483L123.928 289.618L113.565 295.057L100.9 275.115L81.2334 285.438L93.8983 305.38L83.4597 310.859L52.8895 262.723L63.328 257.244L75.4688 276.361L95.1356 266.038Z" fill="#0153A5" fill-opacity="0.25"/>
<path d="M131.582 259.103L138.438 269.9L160.753 258.188L166.517 267.265L133.764 284.455L103.194 236.32L135.569 219.327L141.334 228.404L119.397 239.918L125.905 250.164L145.95 239.643L151.627 248.583L131.582 259.103Z" fill="#0153A5" fill-opacity="0.25"/>
<path d="M139.372 217.332L178.327 196.885L184.092 205.962L169.796 213.466L194.601 252.524L184.163 258.003L159.357 218.945L145.136 226.409L139.372 217.332Z" fill="#0153A5" fill-opacity="0.25"/>
<path d="M261.917 211.141L265.455 216.711L255.243 222.071L251.706 216.501C243.856 219.704 236.686 220.748 230.194 219.631C223.674 218.469 218.667 215.138 215.173 209.636C211.679 204.135 211.024 198.55 213.206 192.882C215.309 187.194 219.873 182.047 226.9 177.442L223.363 171.872L233.574 166.513L237.112 172.083C244.802 168.841 251.973 167.797 258.623 168.952C265.194 170.088 270.226 173.406 273.72 178.907C277.214 184.409 277.859 190.03 275.655 195.771C273.43 201.584 268.851 206.707 261.917 211.141ZM242.571 180.678L256.415 202.477C264.981 196.697 267.27 190.667 263.281 184.386C259.263 178.06 252.36 176.824 242.571 180.678ZM225.536 204.197C229.525 210.478 236.399 211.668 246.159 207.768L232.403 186.107C223.807 191.841 221.518 197.871 225.536 204.197Z" fill="#0153A5" fill-opacity="0.25"/>
<path d="M336.19 169.866C333.902 177.485 328.925 183.306 321.26 187.329C313.595 191.352 305.561 192.36 297.159 190.352C288.749 188.226 282.331 183.679 277.906 176.711C273.451 169.696 272.343 162.393 274.581 154.8C276.84 147.135 281.802 141.291 289.467 137.268C297.132 133.245 305.18 132.261 313.612 134.314C322.014 136.322 328.443 140.833 332.897 147.847C337.352 154.861 338.449 162.201 336.19 169.866ZM300.391 180.037C305.482 181.277 310.473 180.613 315.364 178.046C320.256 175.479 323.384 171.881 324.748 167.253C326.133 162.553 325.37 157.911 322.459 153.326C319.547 148.742 315.506 145.82 310.336 144.561C305.166 143.301 300.16 143.942 295.319 146.483C290.478 149.024 287.365 152.644 285.979 157.345C284.594 162.045 285.357 166.687 288.268 171.271C291.18 175.856 295.221 178.778 300.391 180.037Z" fill="#0153A5" fill-opacity="0.25"/>
<path d="M317.987 123.583L356.942 103.137L362.707 112.214L348.41 119.717L373.216 158.776L362.778 164.255L337.972 125.196L323.751 132.66L317.987 123.583Z" fill="#0153A5" fill-opacity="0.25"/>
<path d="M430.89 120.161C428.602 127.781 423.625 133.602 415.96 137.625C408.295 141.648 400.261 142.655 391.859 140.647C383.449 138.521 377.031 133.974 372.605 127.006C368.151 119.992 367.043 112.689 369.281 105.096C371.54 97.4309 376.502 91.5868 384.167 87.5637C391.832 83.5406 399.88 82.556 408.312 84.6098C416.714 86.6178 423.143 91.1288 427.597 98.1429C432.052 105.157 433.149 112.496 430.89 120.161ZM395.091 130.332C400.182 131.573 405.173 130.909 410.064 128.342C414.956 125.774 418.084 122.176 419.448 117.549C420.833 112.848 420.07 108.206 417.158 103.622C414.247 99.0373 410.206 96.1155 405.036 94.856C399.866 93.5966 394.86 94.2374 390.019 96.7783C385.178 99.3192 382.065 102.94 380.679 107.64C379.294 112.34 380.057 116.982 382.968 121.567C385.88 126.151 389.921 129.073 395.091 130.332Z" fill="#0153A5" fill-opacity="0.25"/>
<path d="M38.4657 462.415L26.3249 443.299L36.6879 437.859L67.2581 485.995L56.8952 491.434L44.2304 471.492L24.5635 481.815L37.2283 501.757L26.7898 507.236L-3.78047 459.1L6.65809 453.621L18.7988 472.738L38.4657 462.415Z" fill="#0153A5" fill-opacity="0.25"/>
<path d="M74.9119 455.48L81.7684 466.277L104.083 454.565L109.847 463.642L77.0945 480.832L46.5243 432.697L78.8989 415.704L84.6636 424.781L62.7275 436.295L69.2346 446.541L89.2797 436.02L94.957 444.959L74.9119 455.48Z" fill="#0153A5" fill-opacity="0.25"/>
<path d="M82.7017 413.708L121.657 393.262L127.422 402.339L113.126 409.843L137.931 448.901L127.493 454.38L102.687 415.322L88.4664 422.785L82.7017 413.708Z" fill="#0153A5" fill-opacity="0.25"/>
<path d="M205.247 407.518L208.785 413.088L198.573 418.448L195.036 412.878C187.186 416.081 180.016 417.125 173.524 416.008C167.004 414.846 161.997 411.515 158.503 406.013C155.009 400.512 154.354 394.927 156.536 389.259C158.639 383.571 163.204 378.424 170.23 373.819L166.693 368.249L176.904 362.89L180.442 368.46C188.132 365.218 195.303 364.174 201.953 365.329C208.524 366.465 213.556 369.783 217.05 375.284C220.544 380.786 221.189 386.407 218.985 392.148C216.76 397.961 212.181 403.084 205.247 407.518ZM185.901 377.055L199.745 398.854C208.311 393.074 210.6 387.044 206.611 380.763C202.594 374.437 195.69 373.201 185.901 377.055ZM168.866 400.574C172.855 406.855 179.729 408.045 189.489 404.145L175.733 382.484C167.137 388.218 164.848 394.248 168.866 400.574Z" fill="#0153A5" fill-opacity="0.25"/>
<path d="M279.52 366.243C277.232 373.862 272.255 379.683 264.59 383.706C256.925 387.729 248.891 388.737 240.489 386.729C232.079 384.603 225.661 380.056 221.236 373.087C216.781 366.073 215.673 358.77 217.911 351.177C220.17 343.512 225.132 337.668 232.797 333.645C240.462 329.622 248.51 328.638 256.942 330.691C265.344 332.699 271.773 337.21 276.227 344.224C280.682 351.238 281.779 358.578 279.52 366.243ZM243.721 376.414C248.812 377.654 253.803 376.99 258.694 374.423C263.586 371.856 266.714 368.258 268.078 363.63C269.463 358.93 268.7 354.288 265.789 349.703C262.877 345.119 258.836 342.197 253.666 340.938C248.496 339.678 243.49 340.319 238.649 342.86C233.808 345.401 230.695 349.021 229.309 353.721C227.924 358.422 228.687 363.064 231.599 367.648C234.51 372.233 238.551 375.155 243.721 376.414Z" fill="#0153A5" fill-opacity="0.25"/>
<path d="M261.317 319.96L300.272 299.514L306.037 308.591L291.741 316.094L316.546 355.153L306.108 360.632L281.302 321.573L267.081 329.037L261.317 319.96Z" fill="#0153A5" fill-opacity="0.25"/>
<path d="M374.22 316.538C371.932 324.158 366.955 329.979 359.29 334.002C351.625 338.025 343.591 339.032 335.189 337.024C326.779 334.898 320.361 330.351 315.936 323.383C311.481 316.369 310.373 309.065 312.611 301.473C314.87 293.808 319.832 287.964 327.497 283.941C335.162 279.918 343.21 278.933 351.642 280.987C360.044 282.995 366.473 287.506 370.927 294.52C375.382 301.534 376.479 308.873 374.22 316.538ZM338.421 326.709C343.512 327.949 348.503 327.286 353.394 324.718C358.286 322.151 361.414 318.553 362.778 313.926C364.163 309.225 363.4 304.583 360.489 299.999C357.577 295.414 353.536 292.492 348.366 291.233C343.196 289.974 338.19 290.614 333.349 293.155C328.508 295.696 325.395 299.317 324.009 304.017C322.624 308.717 323.387 313.359 326.298 317.944C329.21 322.528 333.251 325.45 338.421 326.709Z" fill="#0153A5" fill-opacity="0.25"/>
<path d="M-13.9405 652.968L-26.0813 633.851L-15.7184 628.412L14.8519 676.548L4.48895 681.987L-8.17587 662.045L-27.8427 672.367L-15.1779 692.309L-25.6165 697.788L-56.1867 649.653L-45.7482 644.174L-33.6074 663.29L-13.9405 652.968Z" fill="#0153A5" fill-opacity="0.25"/>
<path d="M22.5057 646.033L29.3621 656.829L51.6765 645.117L57.4411 654.194L24.6883 671.385L-5.882 623.249L26.4927 606.257L32.2574 615.334L10.3212 626.848L16.8283 637.094L36.8734 626.573L42.5507 635.512L22.5057 646.033Z" fill="#0153A5" fill-opacity="0.25"/>
<path d="M30.2954 604.261L69.251 583.815L75.0156 592.892L60.7193 600.395L85.5249 639.454L75.0863 644.933L50.2808 605.874L36.0601 613.338L30.2954 604.261Z" fill="#0153A5" fill-opacity="0.25"/>
<path d="M152.841 598.071L156.378 603.641L146.167 609.001L142.629 603.431C134.78 606.634 127.609 607.677 121.118 606.561C114.598 605.399 109.591 602.067 106.097 596.566C102.603 591.065 101.947 585.48 104.13 579.811C106.233 574.123 110.797 568.977 117.824 564.372L114.286 558.802L124.498 553.442L128.035 559.012C135.726 555.77 142.896 554.727 149.547 555.882C156.118 557.018 161.15 560.336 164.644 565.837C168.137 571.338 168.782 576.959 166.579 582.7C164.354 588.514 159.775 593.637 152.841 598.071ZM133.494 567.608L147.338 589.407C155.905 583.627 158.194 577.597 154.205 571.316C150.187 564.99 143.284 563.754 133.494 567.608ZM116.46 591.127C120.449 597.408 127.323 598.598 137.083 594.698L123.327 573.036C114.731 578.77 112.442 584.801 116.46 591.127Z" fill="#0153A5" fill-opacity="0.25"/>
<path d="M227.114 556.796C224.826 564.415 219.849 570.236 212.184 574.259C204.519 578.282 196.485 579.29 188.083 577.282C179.673 575.156 173.255 570.608 168.829 563.64C164.375 556.626 163.267 549.323 165.504 541.73C167.764 534.065 172.726 528.221 180.391 524.198C188.056 520.175 196.104 519.19 204.536 521.244C212.938 523.252 219.366 527.763 223.821 534.777C228.275 541.791 229.373 549.131 227.114 556.796ZM191.315 566.967C196.406 568.207 201.397 567.543 206.288 564.976C211.18 562.408 214.307 558.811 215.671 554.183C217.057 549.483 216.294 544.84 213.382 540.256C210.471 535.672 206.43 532.75 201.26 531.49C196.09 530.231 191.084 530.872 186.243 533.413C181.402 535.953 178.289 539.574 176.903 544.274C175.518 548.974 176.281 553.617 179.192 558.201C182.104 562.785 186.145 565.707 191.315 566.967Z" fill="#0153A5" fill-opacity="0.25"/>
<path d="M208.91 510.513L247.866 490.066L253.631 499.143L239.334 506.647L264.14 545.706L253.701 551.184L228.896 512.126L214.675 519.59L208.91 510.513Z" fill="#0153A5" fill-opacity="0.25"/>
<path d="M321.814 507.091C319.525 514.71 314.549 520.531 306.884 524.554C299.219 528.578 291.185 529.585 282.783 527.577C274.372 525.451 267.955 520.904 263.529 513.936C259.075 506.922 257.966 499.618 260.204 492.026C262.464 484.361 267.426 478.517 275.091 474.493C282.756 470.47 290.804 469.486 299.235 471.539C307.638 473.547 314.066 478.058 318.521 485.073C322.975 492.087 324.073 499.426 321.814 507.091ZM286.015 517.262C291.105 518.502 296.097 517.839 300.988 515.271C305.88 512.704 309.007 509.106 310.371 504.478C311.757 499.778 310.994 495.136 308.082 490.551C305.171 485.967 301.13 483.045 295.96 481.786C290.789 480.526 285.784 481.167 280.943 483.708C276.102 486.249 272.988 489.869 271.603 494.57C270.218 499.27 270.981 503.912 273.892 508.497C276.804 513.081 280.844 516.003 286.015 517.262Z" fill="#0153A5" fill-opacity="0.25"/>
<path d="M291.759 652.968L279.618 633.851L289.981 628.412L320.551 676.548L310.188 681.987L297.523 662.045L277.856 672.367L290.521 692.309L280.083 697.788L249.512 649.653L259.951 644.174L272.092 663.29L291.759 652.968Z" fill="#0153A5" fill-opacity="0.25"/>
<path d="M328.205 646.033L335.061 656.829L357.376 645.117L363.14 654.194L330.387 671.385L299.817 623.249L332.192 606.257L337.957 615.334L316.02 626.848L322.528 637.094L342.573 626.573L348.25 635.512L328.205 646.033Z" fill="#0153A5" fill-opacity="0.25"/>
<path d="M335.995 604.261L374.95 583.815L380.715 592.892L366.419 600.395L391.224 639.454L380.786 644.933L355.98 605.874L341.759 613.338L335.995 604.261Z" fill="#0153A5" fill-opacity="0.25"/>
<path d="M458.54 598.071L462.078 603.641L451.866 609.001L448.329 603.431C440.479 606.634 433.309 607.677 426.817 606.561C420.297 605.399 415.29 602.067 411.796 596.566C408.302 591.065 407.647 585.48 409.829 579.811C411.932 574.123 416.496 568.977 423.523 564.372L419.986 558.802L430.197 553.442L433.735 559.012C441.425 555.77 448.596 554.727 455.246 555.882C461.817 557.018 466.849 560.336 470.343 565.837C473.837 571.338 474.482 576.959 472.278 582.7C470.053 588.514 465.474 593.637 458.54 598.071ZM439.194 567.608L453.038 589.407C461.604 583.627 463.893 577.597 459.904 571.316C455.887 564.99 448.983 563.754 439.194 567.608ZM422.159 591.127C426.148 597.408 433.022 598.598 442.782 594.698L429.026 573.036C420.43 578.77 418.141 584.801 422.159 591.127Z" fill="#0153A5" fill-opacity="0.25"/>
<path d="M532.813 556.796C530.525 564.415 525.548 570.236 517.883 574.259C510.218 578.282 502.184 579.29 493.782 577.282C485.372 575.156 478.954 570.608 474.529 563.64C470.074 556.626 468.966 549.323 471.204 541.73C473.463 534.065 478.425 528.221 486.09 524.198C493.755 520.175 501.803 519.19 510.235 521.244C518.637 523.252 525.066 527.763 529.52 534.777C533.975 541.791 535.072 549.131 532.813 556.796ZM497.014 566.967C502.105 568.207 507.096 567.543 511.987 564.976C516.879 562.408 520.007 558.811 521.371 554.183C522.756 549.483 521.993 544.84 519.082 540.256C516.17 535.672 512.129 532.75 506.959 531.49C501.789 530.231 496.783 530.872 491.942 533.413C487.101 535.953 483.988 539.574 482.602 544.274C481.217 548.974 481.98 553.617 484.892 558.201C487.803 562.785 491.844 565.707 497.014 566.967Z" fill="#0153A5" fill-opacity="0.25"/>
<path d="M514.61 510.513L553.565 490.066L559.33 499.143L545.034 506.647L569.839 545.706L559.401 551.184L534.595 512.126L520.374 519.59L514.61 510.513Z" fill="#0153A5" fill-opacity="0.25"/>
<path d="M627.513 507.091C625.225 514.71 620.248 520.531 612.583 524.554C604.918 528.578 596.884 529.585 588.482 527.577C580.072 525.451 573.654 520.904 569.229 513.936C564.774 506.922 563.666 499.618 565.904 492.026C568.163 484.361 573.125 478.517 580.79 474.493C588.455 470.47 596.503 469.486 604.935 471.539C613.337 473.547 619.766 478.058 624.22 485.073C628.675 492.087 629.772 499.426 627.513 507.091ZM591.714 517.262C596.805 518.502 601.796 517.839 606.687 515.271C611.579 512.704 614.707 509.106 616.071 504.478C617.456 499.778 616.693 495.136 613.781 490.551C610.87 485.967 606.829 483.045 601.659 481.786C596.489 480.526 591.483 481.167 586.642 483.708C581.801 486.249 578.688 489.869 577.302 494.57C575.917 499.27 576.68 503.912 579.591 508.497C582.503 513.081 586.544 516.003 591.714 517.262Z" fill="#0153A5" fill-opacity="0.25"/>
<path d="M610.901 652.995L598.76 633.879L609.123 628.44L639.694 676.575L629.331 682.014L616.666 662.072L596.999 672.395L609.664 692.337L599.225 697.816L568.655 649.68L579.094 644.201L591.234 663.318L610.901 652.995Z" fill="#0153A5" fill-opacity="0.25"/>
<path d="M647.347 646.06L654.204 656.857L676.518 645.145L682.283 654.222L649.53 671.412L618.96 623.277L651.334 606.284L657.099 615.361L635.163 626.875L641.67 637.121L661.715 626.6L667.393 635.54L647.347 646.06Z" fill="#0153A5" fill-opacity="0.25"/>
<path d="M655.137 604.289L694.093 583.842L699.857 592.919L685.561 600.423L710.367 639.481L699.928 644.96L675.123 605.902L660.902 613.366L655.137 604.289Z" fill="#0153A5" fill-opacity="0.25"/>
<path d="M777.683 598.098L781.22 603.668L771.009 609.028L767.471 603.458C759.622 606.661 752.451 607.705 745.96 606.588C739.44 605.426 734.432 602.095 730.939 596.594C727.445 591.092 726.789 585.507 728.972 579.839C731.074 574.151 735.639 569.004 742.666 564.399L739.128 558.829L749.34 553.47L752.877 559.04C760.568 555.798 767.738 554.754 774.389 555.909C780.959 557.045 785.992 560.363 789.485 565.864C792.979 571.366 793.624 576.987 791.421 582.728C789.196 588.541 784.616 593.665 777.683 598.098ZM758.336 567.635L772.18 589.434C780.747 583.654 783.036 577.624 779.047 571.343C775.029 565.017 768.126 563.781 758.336 567.635ZM741.302 591.154C745.29 597.435 752.165 598.625 761.925 594.725L748.168 573.064C739.573 578.798 737.284 584.828 741.302 591.154Z" fill="#0153A5" fill-opacity="0.25"/>
<path d="M851.956 556.823C849.667 564.442 844.691 570.263 837.026 574.286C829.361 578.31 821.327 579.317 812.925 577.309C804.514 575.183 798.097 570.636 793.671 563.668C789.217 556.653 788.108 549.35 790.346 541.757C792.605 534.092 797.568 528.248 805.233 524.225C812.898 520.202 820.946 519.218 829.377 521.271C837.78 523.279 844.208 527.79 848.663 534.804C853.117 541.819 854.215 549.158 851.956 556.823ZM816.157 566.994C821.247 568.234 826.238 567.57 831.13 565.003C836.021 562.436 839.149 558.838 840.513 554.21C841.899 549.51 841.136 544.868 838.224 540.283C835.313 535.699 831.272 532.777 826.102 531.518C820.931 530.258 815.926 530.899 811.085 533.44C806.244 535.981 803.13 539.601 801.745 544.302C800.36 549.002 801.123 553.644 804.034 558.228C806.946 562.813 810.986 565.735 816.157 566.994Z" fill="#0153A5" fill-opacity="0.25"/>
<path d="M833.752 510.54L872.708 490.094L878.472 499.171L864.176 506.674L888.982 545.733L878.543 551.212L853.738 512.153L839.517 519.617L833.752 510.54Z" fill="#0153A5" fill-opacity="0.25"/>
<path d="M946.656 507.118C944.367 514.738 939.391 520.559 931.726 524.582C924.061 528.605 916.027 529.612 907.624 527.604C899.214 525.478 892.797 520.931 888.371 513.963C883.917 506.949 882.808 499.646 885.046 492.053C887.305 484.388 892.267 478.544 899.932 474.521C907.598 470.498 915.646 469.513 924.077 471.567C932.48 473.575 938.908 478.086 943.363 485.1C947.817 492.114 948.915 499.453 946.656 507.118ZM910.857 517.29C915.947 518.53 920.938 517.866 925.83 515.299C930.721 512.731 933.849 509.134 935.213 504.506C936.599 499.805 935.836 495.163 932.924 490.579C930.013 485.994 925.972 483.072 920.802 481.813C915.631 480.554 910.626 481.194 905.785 483.735C900.943 486.276 897.83 489.897 896.445 494.597C895.059 499.297 895.823 503.94 898.734 508.524C901.645 513.108 905.686 516.03 910.857 517.29Z" fill="#0153A5" fill-opacity="0.25"/>
<path d="M518.751 43.7044L506.61 24.5877L516.973 19.1485L547.543 67.2842L537.18 72.7233L524.516 52.7814L504.849 63.1038L517.513 83.0457L507.075 88.5246L476.505 40.3889L486.943 34.9101L499.084 54.0268L518.751 43.7044Z" fill="#0153A5" fill-opacity="0.25"/>
<path d="M555.197 36.7695L562.054 47.5656L584.368 35.8536L590.133 44.9306L557.38 62.1214L526.809 13.9858L559.184 -3.00653L564.949 6.07048L543.013 17.584L549.52 27.83L569.565 17.309L575.242 26.2485L555.197 36.7695Z" fill="#0153A5" fill-opacity="0.25"/>
<path d="M562.987 -5.00247L601.942 -25.4488L607.707 -16.3718L593.411 -8.86819L618.216 30.1905L607.778 35.6693L582.972 -3.38936L568.752 4.07454L562.987 -5.00247Z" fill="#0153A5" fill-opacity="0.25"/>
<path d="M685.532 -11.1927L689.07 -5.62272L678.858 -0.263001L675.321 -5.83298C667.471 -2.62987 660.301 -1.58642 653.81 -2.70261C647.289 -3.86464 642.282 -7.19627 638.788 -12.6975C635.295 -18.1987 634.639 -23.7836 636.821 -29.4523C638.924 -35.1403 643.489 -40.2867 650.515 -44.8916L646.978 -50.4616L657.189 -55.8213L660.727 -50.2513C668.417 -53.4932 675.588 -54.5367 682.238 -53.3817C688.809 -52.2462 693.841 -48.9278 697.335 -43.4265C700.829 -37.9253 701.474 -32.3042 699.27 -26.5633C697.045 -20.75 692.466 -15.6265 685.532 -11.1927ZM666.186 -41.6557L680.03 -19.8571C688.596 -25.637 690.885 -31.6672 686.896 -37.9477C682.879 -44.2741 675.975 -45.5101 666.186 -41.6557ZM649.151 -18.1366C653.14 -11.8561 660.014 -10.6659 669.775 -14.5662L656.018 -36.2272C647.422 -30.4932 645.133 -24.463 649.151 -18.1366Z" fill="#0153A5" fill-opacity="0.25"/>
<path d="M759.805 -52.468C757.517 -44.8488 752.54 -39.0277 744.875 -35.0046C737.21 -30.9815 729.177 -29.974 720.774 -31.9819C712.364 -34.1081 705.946 -38.6553 701.521 -45.6235C697.066 -52.6375 695.958 -59.9409 698.196 -67.5336C700.455 -75.1986 705.417 -81.0426 713.082 -85.0657C720.747 -89.0888 728.795 -90.0734 737.227 -88.0196C745.629 -86.0116 752.058 -81.5006 756.512 -74.4866C760.967 -67.4725 762.064 -60.133 759.805 -52.468ZM724.006 -42.2969C729.097 -41.0569 734.088 -41.7205 738.98 -44.2879C743.871 -46.8553 746.999 -50.4529 748.363 -55.0808C749.748 -59.7811 748.985 -64.4234 746.074 -69.0077C743.162 -73.5921 739.121 -76.514 733.951 -77.7734C728.781 -79.0328 723.775 -78.3921 718.934 -75.8512C714.093 -73.3103 710.98 -69.6897 709.595 -64.9895C708.209 -60.2892 708.972 -55.6469 711.884 -51.0626C714.795 -46.4782 718.836 -43.5564 724.006 -42.2969Z" fill="#0153A5" fill-opacity="0.25"/>
<path d="M741.602 -98.751L780.557 -119.197L786.322 -110.12L772.026 -102.617L796.831 -63.5581L786.393 -58.0793L761.587 -97.1379L747.367 -89.674L741.602 -98.751Z" fill="#0153A5" fill-opacity="0.25"/>
<path d="M854.505 -102.173C852.217 -94.5534 847.24 -88.7323 839.575 -84.7092C831.91 -80.6861 823.876 -79.6785 815.474 -81.6865C807.064 -83.8127 800.646 -88.3598 796.221 -95.328C791.766 -102.342 790.658 -109.645 792.896 -117.238C795.155 -124.903 800.117 -130.747 807.782 -134.77C815.447 -138.793 823.495 -139.778 831.927 -137.724C840.329 -135.716 846.758 -131.205 851.212 -124.191C855.667 -117.177 856.764 -109.838 854.505 -102.173ZM818.706 -92.0015C823.797 -90.7614 828.788 -91.4251 833.679 -93.9925C838.571 -96.5599 841.699 -100.158 843.063 -104.785C844.448 -109.486 843.685 -114.128 840.774 -118.712C837.862 -123.297 833.821 -126.219 828.651 -127.478C823.481 -128.737 818.475 -128.097 813.634 -125.556C808.793 -123.015 805.68 -119.394 804.294 -114.694C802.909 -109.994 803.672 -105.352 806.584 -100.767C809.495 -96.1828 813.536 -93.2609 818.706 -92.0015Z" fill="#0153A5" fill-opacity="0.25"/>
<path d="M462.081 240.079L449.94 220.963L460.303 215.524L490.873 263.659L480.51 269.098L467.846 249.156L448.179 259.479L460.844 279.421L450.405 284.9L419.835 236.764L430.273 231.285L442.414 250.402L462.081 240.079Z" fill="#0153A5" fill-opacity="0.25"/>
<path d="M498.527 233.144L505.384 243.941L527.698 232.229L533.463 241.306L500.71 258.496L470.139 210.361L502.514 193.368L508.279 202.445L486.343 213.959L492.85 224.205L512.895 213.684L518.572 222.624L498.527 233.144Z" fill="#0153A5" fill-opacity="0.25"/>
<path d="M506.317 191.373L545.272 170.926L551.037 180.003L536.741 187.507L561.546 226.565L551.108 232.044L526.302 192.986L512.082 200.45L506.317 191.373Z" fill="#0153A5" fill-opacity="0.25"/>
<path d="M628.863 185.182L632.4 190.752L622.188 196.112L618.651 190.542C610.801 193.745 603.631 194.789 597.14 193.672C590.619 192.51 585.612 189.179 582.118 183.678C578.625 178.176 577.969 172.591 580.151 166.923C582.254 161.235 586.819 156.088 593.845 151.483L590.308 145.913L600.52 140.554L604.057 146.124C611.748 142.882 618.918 141.838 625.568 142.993C632.139 144.129 637.171 147.447 640.665 152.948C644.159 158.45 644.804 164.071 642.6 169.812C640.375 175.625 635.796 180.749 628.863 185.182ZM609.516 154.719L623.36 176.518C631.926 170.738 634.215 164.708 630.227 158.427C626.209 152.101 619.305 150.865 609.516 154.719ZM592.481 178.238C596.47 184.519 603.344 185.709 613.105 181.809L599.348 160.148C590.752 165.882 588.464 171.912 592.481 178.238Z" fill="#0153A5" fill-opacity="0.25"/>
<path d="M703.135 143.907C700.847 151.526 695.87 157.347 688.205 161.37C680.54 165.393 672.507 166.401 664.104 164.393C655.694 162.267 649.276 157.72 644.851 150.752C640.396 143.737 639.288 136.434 641.526 128.841C643.785 121.176 648.747 115.332 656.412 111.309C664.077 107.286 672.126 106.302 680.557 108.355C688.959 110.363 695.388 114.874 699.842 121.888C704.297 128.903 705.395 136.242 703.135 143.907ZM667.336 154.078C672.427 155.318 677.418 154.654 682.31 152.087C687.201 149.52 690.329 145.922 691.693 141.294C693.078 136.594 692.315 131.952 689.404 127.367C686.492 122.783 682.452 119.861 677.281 118.602C672.111 117.342 667.105 117.983 662.264 120.524C657.423 123.065 654.31 126.685 652.925 131.386C651.539 136.086 652.302 140.728 655.214 145.312C658.125 149.897 662.166 152.819 667.336 154.078Z" fill="#0153A5" fill-opacity="0.25"/>
<path d="M684.932 97.624L723.887 77.1776L729.652 86.2547L715.356 93.7583L740.161 132.817L729.723 138.296L704.917 99.2371L690.697 106.701L684.932 97.624Z" fill="#0153A5" fill-opacity="0.25"/>
<path d="M797.835 94.2024C795.547 101.822 790.57 107.643 782.905 111.666C775.24 115.689 767.207 116.696 758.804 114.688C750.394 112.562 743.976 108.015 739.551 101.047C735.096 94.0329 733.988 86.7295 736.226 79.1369C738.485 71.4719 743.447 65.6278 751.112 61.6047C758.777 57.5816 766.825 56.597 775.257 58.6508C783.659 60.6588 790.088 65.1698 794.542 72.1839C798.997 79.1979 800.095 86.5375 797.835 94.2024ZM762.036 104.374C767.127 105.614 772.118 104.95 777.01 102.383C781.901 99.8151 785.029 96.2175 786.393 91.5896C787.778 86.8893 787.015 82.2471 784.104 77.6627C781.192 73.0784 777.151 70.1565 771.981 68.897C766.811 67.6376 761.805 68.2784 756.964 70.8193C752.123 73.3602 749.01 76.9807 747.625 81.681C746.239 86.3812 747.002 91.0235 749.914 95.6078C752.825 100.192 756.866 103.114 762.036 104.374Z" fill="#0153A5" fill-opacity="0.25"/>
<path d="M409.673 430.638L397.532 411.521L407.895 406.082L438.465 454.218L428.102 459.657L415.437 439.715L395.771 450.037L408.435 469.979L397.997 475.458L367.427 427.322L377.865 421.844L390.006 440.96L409.673 430.638Z" fill="#0153A5" fill-opacity="0.25"/>
<path d="M446.119 423.703L452.975 434.499L475.29 422.787L481.054 431.864L448.302 449.055L417.731 400.919L450.106 383.927L455.871 393.004L433.935 404.518L440.442 414.764L460.487 404.243L466.164 413.182L446.119 423.703Z" fill="#0153A5" fill-opacity="0.25"/>
<path d="M453.909 381.931L492.864 361.485L498.629 370.562L484.333 378.065L509.138 417.124L498.7 422.603L473.894 383.544L459.673 391.008L453.909 381.931Z" fill="#0153A5" fill-opacity="0.25"/>
<path d="M576.454 375.741L579.992 381.311L569.78 386.671L566.243 381.101C558.393 384.304 551.223 385.347 544.731 384.231C538.211 383.069 533.204 379.737 529.71 374.236C526.216 368.735 525.561 363.15 527.743 357.481C529.846 351.793 534.411 346.647 541.437 342.042L537.9 336.472L548.111 331.112L551.649 336.682C559.339 333.44 566.51 332.397 573.16 333.552C579.731 334.687 584.763 338.006 588.257 343.507C591.751 349.008 592.396 354.629 590.192 360.37C587.967 366.184 583.388 371.307 576.454 375.741ZM557.108 345.278L570.952 367.076C579.518 361.297 581.807 355.266 577.818 348.986C573.801 342.659 566.897 341.423 557.108 345.278ZM540.073 368.797C544.062 375.078 550.936 376.268 560.696 372.367L546.94 350.706C538.344 356.44 536.055 362.471 540.073 368.797Z" fill="#0153A5" fill-opacity="0.25"/>
<path d="M650.727 334.466C648.439 342.085 643.462 347.906 635.797 351.929C628.132 355.952 620.098 356.96 611.696 354.952C603.286 352.826 596.868 348.278 592.443 341.31C587.988 334.296 586.88 326.993 589.118 319.4C591.377 311.735 596.339 305.891 604.004 301.868C611.669 297.845 619.717 296.86 628.149 298.914C636.551 300.922 642.98 305.433 647.434 312.447C651.889 319.461 652.986 326.801 650.727 334.466ZM614.928 344.637C620.019 345.877 625.01 345.213 629.901 342.646C634.793 340.078 637.921 336.481 639.285 331.853C640.67 327.153 639.907 322.51 636.996 317.926C634.084 313.342 630.043 310.42 624.873 309.16C619.703 307.901 614.697 308.542 609.856 311.082C605.015 313.623 601.902 317.244 600.516 321.944C599.131 326.644 599.894 331.287 602.806 335.871C605.717 340.455 609.758 343.377 614.928 344.637Z" fill="#0153A5" fill-opacity="0.25"/>
<path d="M632.524 288.183L671.479 267.736L677.244 276.813L662.948 284.317L687.753 323.376L677.315 328.854L652.509 289.796L638.288 297.26L632.524 288.183Z" fill="#0153A5" fill-opacity="0.25"/>
<path d="M745.427 284.761C743.139 292.38 738.162 298.201 730.497 302.224C722.832 306.248 714.798 307.255 706.396 305.247C697.986 303.121 691.568 298.574 687.143 291.606C682.688 284.591 681.58 277.288 683.818 269.695C686.077 262.03 691.039 256.186 698.704 252.163C706.369 248.14 714.417 247.156 722.849 249.209C731.251 251.217 737.68 255.728 742.134 262.742C746.589 269.757 747.686 277.096 745.427 284.761ZM709.628 294.932C714.719 296.172 719.71 295.508 724.601 292.941C729.493 290.374 732.621 286.776 733.985 282.148C735.37 277.448 734.607 272.806 731.696 268.221C728.784 263.637 724.743 260.715 719.573 259.456C714.403 258.196 709.397 258.837 704.556 261.378C699.715 263.919 696.602 267.539 695.216 272.24C693.831 276.94 694.594 281.582 697.505 286.166C700.417 290.751 704.458 293.673 709.628 294.932Z" fill="#0153A5" fill-opacity="0.25"/>
<path d="M715.378 430.638L703.237 411.521L713.6 406.082L744.17 454.218L733.807 459.657L721.142 439.715L701.476 450.037L714.14 469.979L703.702 475.458L673.132 427.322L683.57 421.844L695.711 440.96L715.378 430.638Z" fill="#0153A5" fill-opacity="0.25"/>
<path d="M751.824 423.703L758.68 434.499L780.995 422.787L786.759 431.864L754.007 449.055L723.436 400.919L755.811 383.927L761.576 393.004L739.64 404.518L746.147 414.764L766.192 404.243L771.869 413.182L751.824 423.703Z" fill="#0153A5" fill-opacity="0.25"/>
<path d="M759.614 381.931L798.569 361.485L804.334 370.562L790.038 378.065L814.843 417.124L804.405 422.603L779.599 383.544L765.378 391.008L759.614 381.931Z" fill="#0153A5" fill-opacity="0.25"/>
<path d="M882.159 375.741L885.697 381.311L875.485 386.671L871.948 381.101C864.098 384.304 856.928 385.347 850.436 384.231C843.916 383.069 838.909 379.737 835.415 374.236C831.922 368.735 831.266 363.15 833.448 357.481C835.551 351.793 840.116 346.647 847.142 342.042L843.605 336.472L853.816 331.112L857.354 336.682C865.044 333.44 872.215 332.397 878.865 333.552C885.436 334.687 890.468 338.006 893.962 343.507C897.456 349.008 898.101 354.629 895.897 360.37C893.672 366.184 889.093 371.307 882.159 375.741ZM862.813 345.278L876.657 367.076C885.223 361.297 887.512 355.266 883.523 348.986C879.506 342.659 872.602 341.423 862.813 345.278ZM845.778 368.797C849.767 375.078 856.641 376.268 866.401 372.367L852.645 350.706C844.049 356.44 841.76 362.471 845.778 368.797Z" fill="#0153A5" fill-opacity="0.25"/>
<path d="M956.432 334.466C954.144 342.085 949.167 347.906 941.502 351.929C933.837 355.952 925.803 356.96 917.401 354.952C908.991 352.826 902.573 348.278 898.148 341.31C893.693 334.296 892.585 326.993 894.823 319.4C897.082 311.735 902.044 305.891 909.709 301.868C917.374 297.845 925.422 296.86 933.854 298.914C942.256 300.922 948.685 305.433 953.139 312.447C957.594 319.461 958.691 326.801 956.432 334.466ZM920.633 344.637C925.724 345.877 930.715 345.213 935.607 342.646C940.498 340.078 943.626 336.481 944.99 331.853C946.375 327.153 945.612 322.51 942.701 317.926C939.789 313.342 935.748 310.42 930.578 309.16C925.408 307.901 920.402 308.542 915.561 311.082C910.72 313.623 907.607 317.244 906.222 321.944C904.836 326.644 905.599 331.287 908.511 335.871C911.422 340.455 915.463 343.377 920.633 344.637Z" fill="#0153A5" fill-opacity="0.25"/>
<path d="M938.229 288.183L977.184 267.736L982.949 276.813L968.653 284.317L993.458 323.376L983.02 328.854L958.214 289.796L943.993 297.26L938.229 288.183Z" fill="#0153A5" fill-opacity="0.25"/>
<path d="M1051.13 284.761C1048.84 292.38 1043.87 298.201 1036.2 302.224C1028.54 306.248 1020.5 307.255 1012.1 305.247C1003.69 303.121 997.273 298.574 992.848 291.606C988.393 284.591 987.285 277.288 989.523 269.695C991.782 262.03 996.744 256.186 1004.41 252.163C1012.07 248.14 1020.12 247.156 1028.55 249.209C1036.96 251.217 1043.38 255.728 1047.84 262.742C1052.29 269.757 1053.39 277.096 1051.13 284.761ZM1015.33 294.932C1020.42 296.172 1025.41 295.508 1030.31 292.941C1035.2 290.374 1038.33 286.776 1039.69 282.148C1041.08 277.448 1040.31 272.806 1037.4 268.221C1034.49 263.637 1030.45 260.715 1025.28 259.456C1020.11 258.196 1015.1 258.837 1010.26 261.378C1005.42 263.919 1002.31 267.539 1000.92 272.24C999.536 276.94 1000.3 281.582 1003.21 286.166C1006.12 290.751 1010.16 293.673 1015.33 294.932Z" fill="#0153A5" fill-opacity="0.25"/>
<path d="M159.743 76.5091L147.602 57.3923L157.965 51.9532L188.535 100.089L178.173 105.528L165.508 85.5861L145.841 95.9085L158.506 115.85L148.067 121.329L117.497 73.1936L127.935 67.7148L140.076 86.8315L159.743 76.5091Z" fill="#0153A5" fill-opacity="0.25"/>
<path d="M196.189 69.5741L203.046 80.3703L225.36 68.6583L231.125 77.7353L198.372 94.9261L167.802 46.7905L200.176 29.7982L205.941 38.8752L184.005 50.3886L190.512 60.6347L210.557 50.1137L216.234 59.0532L196.189 69.5741Z" fill="#0153A5" fill-opacity="0.25"/>
<path d="M203.979 27.8022L242.935 7.35588L248.699 16.4329L234.403 23.9365L259.209 62.9952L248.77 68.474L223.964 29.4153L209.744 36.8792L203.979 27.8022Z" fill="#0153A5" fill-opacity="0.25"/>
<path d="M326.525 21.612L330.062 27.182L319.85 32.5417L316.313 26.9717C308.463 30.1748 301.293 31.2183 294.802 30.1021C288.281 28.94 283.274 25.6084 279.781 20.1072C276.287 14.606 275.631 9.02105 277.813 3.35241C279.916 -2.33561 284.481 -7.48206 291.507 -12.0869L287.97 -17.6569L298.182 -23.0166L301.719 -17.4467C309.41 -20.6885 316.58 -21.732 323.23 -20.577C329.801 -19.4415 334.834 -16.1231 338.327 -10.6219C341.821 -5.12064 342.466 0.500451 340.262 6.2414C338.037 12.0547 333.458 17.1782 326.525 21.612ZM307.178 -8.85101L321.022 12.9476C329.588 7.16773 331.877 1.13752 327.889 -5.14303C323.871 -11.4694 316.967 -12.7054 307.178 -8.85101ZM290.143 14.6681C294.132 20.9486 301.007 22.1388 310.767 18.2385L297.01 -3.42253C288.415 2.31147 286.126 8.34168 290.143 14.6681Z" fill="#0153A5" fill-opacity="0.25"/>
<path d="M400.797 -19.6633C398.509 -12.0441 393.532 -6.22302 385.867 -2.19992C378.202 1.82318 370.169 2.83072 361.766 0.822739C353.356 -1.3034 346.938 -5.85057 342.513 -12.8188C338.058 -19.8328 336.95 -27.1362 339.188 -34.7289C341.447 -42.3939 346.409 -48.2379 354.074 -52.261C361.739 -56.2841 369.788 -57.2687 378.219 -55.2149C386.622 -53.2069 393.05 -48.6959 397.505 -41.6819C401.959 -34.6678 403.057 -27.3283 400.797 -19.6633ZM364.998 -9.49225C370.089 -8.25221 375.08 -8.91586 379.972 -11.4832C384.863 -14.0506 387.991 -17.6482 389.355 -22.2762C390.74 -26.9764 389.977 -31.6187 387.066 -36.203C384.154 -40.7874 380.114 -43.7093 374.943 -44.9687C369.773 -46.2281 364.767 -45.5874 359.926 -43.0465C355.085 -40.5056 351.972 -36.885 350.587 -32.1848C349.201 -27.4845 349.964 -22.8423 352.876 -18.2579C355.787 -13.6736 359.828 -10.7517 364.998 -9.49225Z" fill="#0153A5" fill-opacity="0.25"/>
<path d="M382.594 -65.9463L421.55 -86.3927L427.314 -77.3157L413.018 -69.8121L437.823 -30.7534L427.385 -25.2746L402.579 -64.3332L388.359 -56.8693L382.594 -65.9463Z" fill="#0153A5" fill-opacity="0.25"/>
<path d="M495.497 -69.3679C493.209 -61.7487 488.232 -55.9276 480.567 -51.9045C472.902 -47.8814 464.869 -46.8738 456.466 -48.8818C448.056 -51.008 441.638 -55.5552 437.213 -62.5234C432.758 -69.5374 431.65 -76.8408 433.888 -84.4335C436.147 -92.0984 441.109 -97.9425 448.774 -101.966C456.439 -105.989 464.488 -106.973 472.919 -104.919C481.321 -102.912 487.75 -98.4005 492.204 -91.3864C496.659 -84.3724 497.757 -77.0329 495.497 -69.3679ZM459.698 -59.1968C464.789 -57.9568 469.78 -58.6204 474.672 -61.1878C479.563 -63.7552 482.691 -67.3528 484.055 -71.9807C485.44 -76.681 484.677 -81.3233 481.766 -85.9076C478.854 -90.492 474.814 -93.4138 469.643 -94.6733C464.473 -95.9327 459.467 -95.2919 454.626 -92.751C449.785 -90.2101 446.672 -86.5896 445.287 -81.8893C443.901 -77.1891 444.664 -72.5468 447.576 -67.9625C450.487 -63.3781 454.528 -60.4562 459.698 -59.1968Z" fill="#0153A5" fill-opacity="0.25"/>
<path d="M828.921 192.427L816.78 173.31L827.143 167.871L857.713 216.007L847.35 221.446L834.685 201.504L815.019 211.826L827.683 231.768L817.245 237.247L786.675 189.112L797.113 183.633L809.254 202.749L828.921 192.427Z" fill="#0153A5" fill-opacity="0.25"/>
<path d="M865.367 185.492L872.223 196.288L894.538 184.576L900.302 193.653L867.55 210.844L836.979 162.708L869.354 145.716L875.119 154.793L853.183 166.307L859.69 176.553L879.735 166.032L885.412 174.971L865.367 185.492Z" fill="#0153A5" fill-opacity="0.25"/>
<path d="M873.157 143.72L912.112 123.274L917.877 132.351L903.581 139.854L928.386 178.913L917.948 184.392L893.142 145.333L878.921 152.797L873.157 143.72Z" fill="#0153A5" fill-opacity="0.25"/>
<path d="M995.702 137.53L999.24 143.1L989.028 148.46L985.491 142.89C977.641 146.093 970.471 147.136 963.979 146.02C957.459 144.858 952.452 141.526 948.958 136.025C945.465 130.524 944.809 124.939 946.991 119.27C949.094 113.582 953.659 108.436 960.685 103.831L957.148 98.261L967.359 92.9013L970.897 98.4713C978.587 95.2294 985.758 94.186 992.408 95.3409C998.979 96.4765 1004.01 99.7949 1007.5 105.296C1011 110.797 1011.64 116.418 1009.44 122.159C1007.22 127.973 1002.64 133.096 995.702 137.53ZM976.356 107.067L990.2 128.866C998.766 123.086 1001.06 117.055 997.066 110.775C993.049 104.449 986.145 103.213 976.356 107.067ZM959.321 130.586C963.31 136.867 970.184 138.057 979.944 134.156L966.188 112.495C957.592 118.229 955.303 124.26 959.321 130.586Z" fill="#0153A5" fill-opacity="0.25"/>
<path d="M1069.98 96.2547C1067.69 103.874 1062.71 109.695 1055.05 113.718C1047.38 117.741 1039.35 118.749 1030.94 116.741C1022.53 114.615 1016.12 110.067 1011.69 103.099C1007.24 96.0851 1006.13 88.7818 1008.37 81.1891C1010.62 73.5241 1015.59 67.6801 1023.25 63.657C1030.92 59.6339 1038.97 58.6492 1047.4 60.7031C1055.8 62.711 1062.23 67.2221 1066.68 74.2361C1071.14 81.2502 1072.23 88.5897 1069.98 96.2547ZM1034.18 106.426C1039.27 107.666 1044.26 107.002 1049.15 104.435C1054.04 101.867 1057.17 98.2697 1058.53 93.6418C1059.92 88.9416 1059.16 84.2993 1056.24 79.7149C1053.33 75.1306 1049.29 72.2087 1044.12 70.9493C1038.95 69.6898 1033.95 70.3306 1029.1 72.8715C1024.26 75.4124 1021.15 79.033 1019.76 83.7332C1018.38 88.4334 1019.14 93.0757 1022.05 97.6601C1024.97 102.244 1029.01 105.166 1034.18 106.426Z" fill="#0153A5" fill-opacity="0.25"/>
<path d="M1051.77 49.9716L1090.73 29.5253L1096.49 38.6023L1082.2 46.1059L1107 85.1646L1096.56 90.6434L1071.76 51.5847L1057.54 59.0486L1051.77 49.9716Z" fill="#0153A5" fill-opacity="0.25"/>
<path d="M1164.68 46.5501C1162.39 54.1693 1157.41 59.9904 1149.75 64.0135C1142.08 68.0366 1134.05 69.0441 1125.64 67.0361C1117.23 64.91 1110.82 60.3628 1106.39 53.3946C1101.94 46.3806 1100.83 39.0772 1103.07 31.4845C1105.32 23.8195 1110.29 17.9755 1117.95 13.9524C1125.62 9.92929 1133.67 8.94465 1142.1 10.9985C1150.5 13.0065 1156.93 17.5175 1161.38 24.5315C1165.84 31.5456 1166.93 38.8851 1164.68 46.5501ZM1128.88 56.7212C1133.97 57.9612 1138.96 57.2975 1143.85 54.7302C1148.74 52.1628 1151.87 48.5652 1153.23 43.9372C1154.62 39.237 1153.86 34.5947 1150.94 30.0104C1148.03 25.426 1143.99 22.5041 1138.82 21.2447C1133.65 19.9853 1128.65 20.626 1123.8 23.1669C1118.96 25.7078 1115.85 29.3284 1114.46 34.0286C1113.08 38.7289 1113.84 43.3711 1116.75 47.9555C1119.66 52.5398 1123.71 55.4617 1128.88 56.7212Z" fill="#0153A5" fill-opacity="0.25"/>
<path d="M-260.257 309.046L-272.398 289.929L-262.035 284.49L-231.465 332.626L-241.827 338.065L-254.492 318.123L-274.159 328.446L-261.494 348.388L-271.933 353.866L-302.503 305.731L-292.065 300.252L-279.924 319.369L-260.257 309.046Z" fill="#0153A5" fill-opacity="0.25"/>
<path d="M-223.811 302.111L-216.954 312.907L-194.64 301.195L-188.875 310.272L-221.628 327.463L-252.198 279.328L-219.824 262.335L-214.059 271.412L-235.995 282.926L-229.488 293.172L-209.443 282.651L-203.766 291.59L-223.811 302.111Z" fill="#0153A5" fill-opacity="0.25"/>
<path d="M-216.021 260.339L-177.065 239.893L-171.301 248.97L-185.597 256.474L-160.791 295.532L-171.23 301.011L-196.036 261.952L-210.256 269.416L-216.021 260.339Z" fill="#0153A5" fill-opacity="0.25"/>
<path d="M-93.4753 254.149L-89.9379 259.719L-100.15 265.079L-103.687 259.509C-111.537 262.712 -118.707 263.755 -125.198 262.639C-131.719 261.477 -136.726 258.146 -140.219 252.644C-143.713 247.143 -144.369 241.558 -142.187 235.89C-140.084 230.201 -135.519 225.055 -128.493 220.45L-132.03 214.88L-121.818 209.52L-118.281 215.09C-110.59 211.849 -103.42 210.805 -96.7696 211.96C-90.1988 213.096 -85.1665 216.414 -81.6727 221.915C-78.179 227.416 -77.534 233.038 -79.7376 238.779C-81.9625 244.592 -86.5418 249.715 -93.4753 254.149ZM-112.822 223.686L-98.978 245.485C-90.4115 239.705 -88.1226 233.675 -92.1113 227.394C-96.1291 221.068 -103.033 219.832 -112.822 223.686ZM-129.857 247.205C-125.868 253.486 -118.993 254.676 -109.233 250.776L-122.99 229.115C-131.585 234.849 -133.874 240.879 -129.857 247.205Z" fill="#0153A5" fill-opacity="0.25"/>
<path d="M-19.2025 212.874C-21.4909 220.493 -26.4675 226.314 -34.1326 230.337C-41.7976 234.36 -49.8313 235.368 -58.2337 233.36C-66.6438 231.234 -73.0616 226.687 -77.4871 219.718C-81.9416 212.704 -83.0499 205.401 -80.812 197.808C-78.5528 190.143 -73.5907 184.299 -65.9256 180.276C-58.2606 176.253 -50.2124 175.268 -41.7809 177.322C-33.3785 179.33 -26.95 183.841 -22.4955 190.855C-18.041 197.869 -16.9433 205.209 -19.2025 212.874ZM-55.0016 223.045C-49.9108 224.285 -44.9198 223.621 -40.0283 221.054C-35.1368 218.487 -32.009 214.889 -30.645 210.261C-29.2596 205.561 -30.0226 200.918 -32.9341 196.334C-35.8455 191.75 -39.8864 188.828 -45.0566 187.568C-50.2269 186.309 -55.2325 186.95 -60.0736 189.491C-64.9147 192.032 -68.0279 195.652 -69.4133 200.352C-70.7986 205.053 -70.0356 209.695 -67.1241 214.279C-64.2127 218.864 -60.1718 221.785 -55.0016 223.045Z" fill="#0153A5" fill-opacity="0.25"/>
<path d="M-37.406 166.591L1.54951 146.144L7.31419 155.221L-6.98208 162.725L17.8235 201.784L7.38493 207.263L-17.4206 168.204L-31.6413 175.668L-37.406 166.591Z" fill="#0153A5" fill-opacity="0.25"/>
<path d="M75.4974 163.169C73.2091 170.788 68.2324 176.61 60.5673 180.633C52.9023 184.656 44.8686 185.663 36.4663 183.655C28.0561 181.529 21.6383 176.982 17.2129 170.014C12.7584 163 11.65 155.696 13.888 148.104C16.1471 140.439 21.1093 134.595 28.7743 130.572C36.4393 126.548 44.4876 125.564 52.9191 127.618C61.3215 129.626 67.7499 134.137 72.2045 141.151C76.659 148.165 77.7566 155.504 75.4974 163.169ZM39.6983 173.34C44.789 174.58 49.7802 173.917 54.6717 171.349C59.5632 168.782 62.6909 165.184 64.055 160.556C65.4404 155.856 64.6773 151.214 61.7659 146.63C58.8544 142.045 54.8136 139.123 49.6433 137.864C44.473 136.604 39.4674 137.245 34.6263 139.786C29.7852 142.327 26.672 145.948 25.2866 150.648C23.9013 155.348 24.6643 159.99 27.5758 164.575C30.4873 169.159 34.5281 172.081 39.6983 173.34Z" fill="#0153A5" fill-opacity="0.25"/>
</g>
</g>
<defs>
<clipPath id="clip0_1671_62082">
<rect width="850" height="600" rx="4" fill="white"/>
</clipPath>
</defs>
</svg>
