<svg width="269" height="78" viewBox="0 0 269 78" fill="none" xmlns="http://www.w3.org/2000/svg">
<g clip-path="url(#clip0_800_11405)">
<path fill-rule="evenodd" clip-rule="evenodd" d="M20.5681 20.7221C19.7315 18.224 18.7693 16.25 15.4645 16.25C12.1595 16.25 11.1327 18.2137 10.2522 20.7221L1.17393 46.5579H7.19206L9.28995 40.4317H20.8741L22.8188 46.5579H29.2213L20.5681 20.7221ZM11.0478 35.2277L15.1618 22.9752H15.3148L19.2012 35.2277H11.0478ZM133.639 41.0851C136.75 41.0851 137.813 39.4311 138.381 33.6452L139.898 16.5631H160.176V46.5579H154.331V21.8249H144.926L143.844 34.1692C143.088 42.2015 141.271 46.8506 134.224 46.8506H132.978V41.0851H133.639ZM253.788 46.5579V25.1126H268.472V29.915H259.337V46.5579H253.788ZM177.469 25.1126L169.832 38.2161V25.1126H164.365V46.5579H169.778L177.418 33.3728V46.5579H182.922V25.1126H177.469ZM212.802 38.2161L220.443 25.1126H225.896V46.5579H220.389V33.3728L212.752 46.5579H207.339V25.1126H212.802V38.2161ZM33.1449 36.7151C33.0157 40.7175 32.499 41.5207 30.2515 41.5207V46.5579H31.0878C36.698 46.5579 38.0478 43.6582 38.2519 37.2086L38.4831 30.0613H43.7397V46.5579H49.2273V25.0787H33.5291L33.1449 36.7151ZM58.904 31.603H62.8686C68.0911 31.603 71.0628 34.2884 71.0527 39.0022C71.0527 42.6643 68.9174 46.5579 62.9366 46.5579H53.4164V25.0787H58.904V31.603ZM58.904 41.8134H62.4503V41.8271C64.3918 41.8271 65.4968 40.9489 65.5104 38.9988C65.5104 37.2051 64.3544 36.3679 62.4503 36.3679H58.904V41.8134ZM88.9303 24.5817V16.6108H83.4494V24.5817C77.1591 25.1161 72.9295 29.5813 72.9295 35.8131C72.9295 42.045 77.1591 46.5308 83.4494 47.065V55.1517H88.9303V47.0515C95.2239 46.5579 99.4706 42.0551 99.4706 35.7995C99.4706 29.5439 95.2239 25.0787 88.9303 24.5817ZM83.4494 41.8645C80.3893 41.4459 78.4955 39.1417 78.4955 35.7995C78.4955 32.4573 80.3994 30.1531 83.4494 29.7345V41.8645ZM88.937 29.7345V41.8636C91.9931 41.4322 93.891 39.1392 93.891 35.7995C93.891 32.4573 91.9972 30.1531 88.937 29.7345ZM120.034 32.7466V39.9552C120.034 41.1395 120.415 41.5957 121.422 41.5957V46.5579H119.518C117.42 46.5579 115.822 45.7547 115.097 44.3048C114.285 45.5062 112.425 47.0889 109.076 47.0889C104.506 47.0889 101.337 44.0394 101.337 39.574C101.337 35.3027 104.234 32.7466 109.113 32.7466H114.553C114.553 30.1531 113.18 29.1594 111.048 29.1594C108.447 29.1594 107.617 30.5343 107.427 31.3343H101.861C102.123 27.672 105.21 24.1631 111.041 24.1631C116.678 24.1631 120.034 27.4814 120.034 32.7466ZM110.507 42.4363C112.792 42.4363 114.547 41.0239 114.547 38.5462V37.1337H110.164C108.678 37.1337 106.961 37.4367 106.961 39.574C106.961 41.7113 108.525 42.4363 110.507 42.4363ZM0.527832 54.8556H29.8639V60.958H0.527832V54.8556ZM244.046 33.1925H235.641V25.0957H230.085V46.5579H235.641V37.9982H244.046V46.5579H249.598V25.0957H244.046V33.1925ZM203.975 30.6433C203.975 33.07 202.448 34.8432 201.011 35.4286C203.213 36.1195 204.533 37.8927 204.533 40.0947C204.533 44.4069 200.794 47.0855 194.772 47.082C188.322 47.082 185.608 43.3144 185.231 39.4311H190.529C190.821 40.4044 191.606 42.6167 194.752 42.6167C197.499 42.6167 198.832 41.7489 198.832 39.9654C198.832 38.5121 197.673 37.6918 195.692 37.6918H192.395V33.5634H195.509C196.673 33.5634 198.438 32.9576 198.438 30.9802C198.438 29.4588 197.258 28.6216 195.118 28.6216C192.882 28.6216 191.559 29.8673 191.055 31.4295H185.615C186.176 27.7605 189.016 24.1562 195.136 24.1562C200.674 24.1562 203.975 26.5829 203.975 30.6433Z" fill="#EF3124"/>
</g>
<defs>
<clipPath id="clip0_800_11405">
<rect width="267.944" height="78" fill="white" transform="translate(0.527832)"/>
</clipPath>
</defs>
</svg>
