<svg width="277" height="78" viewBox="0 0 277 78" fill="none" xmlns="http://www.w3.org/2000/svg">
<path d="M78.5219 39.7975C78.5219 51.4769 69.0756 60.9231 57.3963 60.9231C45.7169 60.9231 36.2706 51.4769 36.2706 39.7975C36.2706 28.1181 45.7169 18.6719 57.3963 18.6719C69.0756 18.6719 78.5219 28.1181 78.5219 39.7975Z" fill="url(#paint0_linear_800_1462)"/>
<path d="M68.1429 44.4881H50.246L57.7685 31.9847L62.8872 40.8131C63.2997 41.6034 64.1238 42.0844 65.0173 42.0844C65.3951 42.0844 65.7729 41.9812 66.1169 41.8097C67.2851 41.2256 67.7313 39.7828 67.1135 38.6147L60.3447 27.1416C59.8638 26.2144 58.9366 25.6641 57.7685 25.6641C56.5319 25.6641 55.7416 26.0766 55.0891 27.1069L44.4747 44.9006C43.9938 45.7594 44.0622 47.0644 44.6126 47.9231C45.2313 48.8503 46.3985 49.2281 47.2919 49.2281H68.1429C69.4479 49.2281 70.5129 48.1631 70.5129 46.8581C70.5129 45.5531 69.4479 44.4881 68.1429 44.4881Z" fill="black"/>
<path d="M57.5 57.8778C47.3666 57.8778 39.0875 49.6334 39.0875 39.5C39.0875 29.3666 47.3666 21.0875 57.5 21.0875C67.6334 21.0875 75.8778 29.3666 75.8778 39.5C75.8778 49.6334 67.6334 57.8778 57.5 57.8778ZM57.5 17C45.0997 17 35 27.0997 35 39.5C35 51.9003 45.0997 62 57.5 62C69.9003 62 80 51.9003 80 39.5C80 27.0997 69.9003 17 57.5 17Z" fill="black"/>
<path d="M111.95 44.6584H94.6591L101.603 32.9013L105.488 41.0481C105.901 41.8384 106.726 42.3203 107.619 42.3203C107.997 42.3203 108.376 42.2172 108.719 42.0456C109.888 41.4269 110.334 40.0178 109.715 38.8488L104.25 28.33C103.734 27.3672 102.841 26.8516 101.672 26.8516C100.434 26.8516 99.6437 27.2641 98.9903 28.2606L89.0219 44.8647C88.5409 45.7244 88.6094 47.0303 89.1597 47.89C89.7784 48.8181 90.9475 49.1959 91.8409 49.1959H111.917C113.257 49.1959 114.323 48.13 114.323 46.8241C114.323 45.5181 113.257 44.6584 111.95 44.6584Z" fill="black"/>
<path d="M138.556 44.6566H125.184V40.2559H135.806C137.078 40.2559 138.143 39.3278 138.143 38.0219C138.143 36.7497 137.077 35.7878 135.806 35.7878H125.184V31.9375H138.522C139.828 31.9375 140.859 30.9063 140.859 29.6341C140.859 28.3281 139.828 27.2969 138.522 27.2969H124.221C124.221 27.2969 124.221 27.2969 124.186 27.2969H123.774C123.19 27.2969 121.608 27.2969 120.886 28.4312C120.164 29.5309 120.164 31.0094 120.164 31.1472L120.13 45.1731V45.3447C120.13 46.1013 120.13 47.6819 121.264 48.4384C122.295 49.1256 123.911 49.1603 124.255 49.1603H138.555C139.861 49.1603 140.893 48.1291 140.893 46.8231C140.894 45.55 139.862 44.6566 138.556 44.6566Z" fill="black"/>
<path d="M160.078 28.7859C159.666 28.0641 158.463 26.9297 156.778 26.9297C155.128 26.9297 153.856 28.1325 153.444 28.9237L145.021 45.9403C144.712 46.5244 144.643 47.1778 144.849 47.8312C145.056 48.45 145.468 48.9656 146.087 49.3097C146.431 49.4812 146.98 49.5844 147.393 49.5844C148.286 49.5844 149.181 49.0687 149.627 48.2437L156.812 32.8087L164.1 48.2784C164.547 49.1034 165.475 49.5844 166.369 49.5844C166.781 49.5844 167.332 49.4812 167.675 49.3097C168.878 48.6562 169.359 47.1441 168.706 45.9412L160.078 28.7859Z" fill="black"/>
<path d="M214.706 27.2969H195.936C194.664 27.2969 193.633 28.3281 193.633 29.6341C193.633 30.9062 194.664 31.7997 195.936 31.7997H202.846V47.1662C202.846 48.4037 204.015 49.5034 205.321 49.5034C206.662 49.5034 207.831 48.4037 207.831 47.1662V31.8006H214.706C215.978 31.8006 217.043 30.9072 217.043 29.635C217.043 28.3281 215.977 27.2969 214.706 27.2969Z" fill="black"/>
<path d="M189.503 42.1781C189.503 43.725 188.713 44.4816 187.131 44.4816L177.987 44.5163V39.7378H187.544C188.816 39.7369 189.503 40.9744 189.503 42.1781ZM187.544 35.0616H177.987V29.6653C177.987 28.3931 176.784 27.3281 175.34 27.3281C173.931 27.3281 172.728 28.3941 172.728 29.6653V45.1688V45.3403C172.728 46.0969 172.728 47.6775 173.862 48.4341C174.825 49.0528 176.199 49.156 176.99 49.156H187.131C191.91 49.156 194.419 45.5466 194.419 42.0056C194.418 38.1216 191.394 35.0616 187.544 35.0616Z" fill="black"/>
<path d="M229.068 32.8069L233.124 41.4694H225.046L229.068 32.8069ZM240.928 45.9394L232.299 28.7859C231.921 28.0641 230.684 26.9297 229.034 26.9297C227.384 26.9297 226.112 28.1325 225.699 28.9238L217.277 45.9403C216.967 46.5244 216.899 47.1778 217.105 47.8312C217.311 48.45 217.724 48.9656 218.308 49.275C218.686 49.4812 219.236 49.5844 219.614 49.5844C220.542 49.5844 221.435 49.0687 221.883 48.2437L222.982 45.8719H235.22L236.355 48.2784C236.802 49.1034 237.695 49.5844 238.623 49.5844C239.036 49.5844 239.552 49.4812 239.929 49.3097C241.134 48.6544 241.58 47.1422 240.928 45.9394Z" fill="black"/>
<path d="M93.1638 58.7228C93.1338 59.1072 93.0925 59.4466 93.0391 59.7419C92.9856 60.0372 92.9097 60.3119 92.8113 60.5688C92.7128 60.8256 92.5928 61.0356 92.4494 61.1997C92.3059 61.3647 92.1288 61.4931 91.9178 61.5841C91.7059 61.6769 91.4622 61.7219 91.1838 61.7219C91.03 61.7219 90.8978 61.6984 90.7863 61.6516V60.6456C90.8884 60.6794 91.0019 60.6972 91.1256 60.6972C91.4378 60.6972 91.6703 60.5275 91.8241 60.1872C91.9778 59.8488 92.0763 59.3509 92.1184 58.6975L92.3744 55H96.7384V61.6647H95.6378V55.9159H93.3691L93.1638 58.7228Z" fill="black"/>
<path d="M100.724 61.6647H99.6212V55H100.724V59.9603H100.775L104.108 55H105.211V61.6647H104.108V56.7044H104.057L100.724 61.6647Z" fill="black"/>
<path d="M110.306 61.8084C109.571 61.8084 108.963 61.6406 108.48 61.305C107.997 60.9703 107.728 60.5222 107.673 59.9625H108.801C108.864 60.2531 109.028 60.48 109.291 60.6422C109.553 60.8044 109.893 60.8859 110.306 60.8859C110.781 60.8859 111.15 60.7847 111.415 60.5822C111.681 60.3787 111.813 60.1106 111.813 59.7778C111.813 59.4066 111.689 59.1319 111.441 58.9547C111.194 58.7775 110.816 58.6884 110.307 58.6884H109.308V57.7781H110.307C111.162 57.7781 111.589 57.4528 111.589 56.8041C111.589 56.5134 111.483 56.28 111.272 56.1056C111.061 55.9312 110.747 55.8431 110.333 55.8431C109.941 55.8431 109.615 55.9219 109.359 56.0803C109.103 56.2387 108.951 56.4506 108.905 56.715H107.822C107.895 56.1637 108.155 55.7259 108.604 55.4016C109.053 55.0772 109.629 54.9141 110.334 54.9141C111.078 54.9141 111.654 55.0772 112.065 55.4044C112.476 55.7306 112.68 56.1675 112.68 56.7141C112.68 57.0553 112.579 57.3609 112.375 57.6309C112.172 57.9009 111.906 58.0734 111.577 58.1503V58.2019C112.009 58.2966 112.34 58.4766 112.567 58.7428C112.796 59.01 112.911 59.3381 112.911 59.7272C112.911 60.3506 112.672 60.8541 112.196 61.2366C111.717 61.6172 111.088 61.8084 110.306 61.8084Z" fill="black"/>
<path d="M116.598 61.6647H115.496V55H116.598V59.9603H116.65L119.983 55H121.085V61.6647H119.983V56.7044H119.931L116.598 61.6647Z" fill="black"/>
<path d="M128.355 61.6647V58.6656H125.067V61.6647H123.965V55H125.067V57.7497H128.355V55H129.458V61.6647H128.355Z" fill="black"/>
<path d="M136.632 55.9159H133.448V61.6647H132.345V55H136.632V55.9159Z" fill="black"/>
<path d="M141.658 61.8103C140.727 61.8103 139.979 61.4991 139.415 60.8784C138.85 60.2559 138.569 59.4178 138.569 58.3622C138.569 57.3066 138.851 56.4684 139.415 55.8459C139.979 55.2253 140.726 54.9141 141.658 54.9141C142.585 54.9141 143.331 55.2253 143.895 55.8459C144.459 56.4684 144.741 57.3066 144.741 58.3622C144.741 59.4131 144.458 60.2513 143.895 60.8747C143.332 61.4981 142.585 61.8103 141.658 61.8103ZM140.231 60.1763C140.585 60.6122 141.06 60.8297 141.657 60.8297C142.254 60.8297 142.73 60.6131 143.08 60.1791C143.431 59.7459 143.606 59.1403 143.606 58.3622C143.606 57.5841 143.431 56.9784 143.08 56.5453C142.73 56.1113 142.255 55.8947 141.657 55.8947C141.059 55.8947 140.584 56.1122 140.231 56.5481C139.88 56.9841 139.703 57.5878 139.703 58.3622C139.703 59.1366 139.88 59.7403 140.231 60.1763Z" fill="black"/>
<path d="M147.297 61.6647V55H150.149C150.772 55 151.264 55.1519 151.623 55.4547C151.982 55.7575 152.161 56.1747 152.161 56.7044C152.161 57.0419 152.056 57.3494 151.843 57.6269C151.632 57.9044 151.372 58.0759 151.065 58.1397V58.1913C151.483 58.2503 151.821 58.4219 152.074 58.7041C152.328 58.9863 152.455 59.3341 152.455 59.7484C152.455 60.3381 152.251 60.805 151.843 61.1481C151.435 61.4922 150.877 61.6647 150.168 61.6647H147.297ZM149.995 55.9038H148.4V57.7684H149.828C150.657 57.7684 151.071 57.4525 151.071 56.8197C151.071 56.5253 150.98 56.2984 150.796 56.14C150.612 55.9816 150.346 55.9038 149.995 55.9038ZM149.918 58.6656H148.4V60.7609H150.117C150.519 60.7609 150.827 60.6719 151.04 60.4947C151.253 60.3184 151.36 60.0606 151.36 59.7231C151.36 59.0181 150.879 58.6656 149.918 58.6656Z" fill="black"/>
<path d="M156.995 61.8103C156.333 61.8103 155.797 61.6266 155.39 61.2591C154.981 60.8916 154.777 60.4088 154.777 59.8106C154.777 59.2388 154.988 58.7803 155.408 58.4391C155.829 58.0978 156.425 57.9056 157.193 57.8625L159.103 57.7538V57.1959C159.103 56.79 158.975 56.4722 158.719 56.2406C158.463 56.0091 158.104 55.8947 157.642 55.8947C157.22 55.8947 156.875 55.9875 156.61 56.1741C156.346 56.3588 156.176 56.6194 156.104 56.9522H155.028C155.066 56.3578 155.323 55.8703 155.8 55.4869C156.276 55.1053 156.899 54.9141 157.668 54.9141C158.45 54.9141 159.07 55.1109 159.53 55.5038C159.988 55.8966 160.218 56.4244 160.218 57.0863V61.6941H159.16V60.5484H159.135C158.934 60.9281 158.64 61.2338 158.251 61.4653C157.862 61.6969 157.444 61.8103 156.995 61.8103ZM157.245 60.8625C157.771 60.8625 158.211 60.6994 158.569 60.3722C158.925 60.0459 159.103 59.6438 159.103 59.1647V58.62L157.322 58.7288C156.873 58.7588 156.526 58.8675 156.28 59.0559C156.035 59.2434 155.912 59.4966 155.912 59.8125C155.912 60.1284 156.034 60.3825 156.277 60.5747C156.521 60.7669 156.843 60.8625 157.245 60.8625Z" fill="black"/>
<path d="M166.738 61.6656V59.2947H165.558L163.866 61.6656H162.591L164.449 59.0894C163.975 58.9525 163.604 58.7191 163.337 58.3909C163.07 58.0619 162.936 57.6681 162.936 57.2116C162.936 56.5281 163.163 55.9881 163.619 55.5934C164.073 55.1978 164.686 55 165.455 55H167.839V61.6647H166.738V61.6656ZM165.463 58.3778H166.738V55.9169H165.463C165.027 55.9169 164.682 56.0303 164.428 56.2563C164.173 56.4822 164.046 56.7944 164.046 57.1919C164.046 57.5425 164.175 57.8275 164.433 58.0469C164.692 58.2681 165.035 58.3778 165.463 58.3778Z" fill="black"/>
<path d="M176.982 58.1528L180.186 61.6647H178.751L175.874 58.4603H175.822V61.6647H174.72V55H175.822V57.9484H175.874L178.719 55H180.097L176.982 58.1528Z" fill="black"/>
<path d="M185.067 61.8103C184.136 61.8103 183.388 61.4991 182.823 60.8784C182.259 60.2559 181.978 59.4178 181.978 58.3622C181.978 57.3066 182.26 56.4684 182.823 55.8459C183.388 55.2253 184.135 54.9141 185.067 54.9141C185.994 54.9141 186.739 55.2253 187.303 55.8459C187.868 56.4684 188.149 57.3066 188.149 58.3622C188.149 59.4131 187.867 60.2513 187.303 60.8747C186.74 61.4981 185.994 61.8103 185.067 61.8103ZM183.64 60.1763C183.993 60.6122 184.468 60.8297 185.066 60.8297C185.663 60.8297 186.138 60.6131 186.489 60.1791C186.839 59.7459 187.015 59.1403 187.015 58.3622C187.015 57.5841 186.839 56.9784 186.489 56.5453C186.138 56.1113 185.664 55.8947 185.066 55.8947C184.468 55.8947 183.992 56.1122 183.64 56.5481C183.288 56.9841 183.112 57.5878 183.112 58.3622C183.112 59.1366 183.288 59.7403 183.64 60.1763Z" fill="black"/>
<path d="M191.806 61.6647H190.704V55H192.056L194.427 60.1909H194.479L196.863 55H198.164V61.6647H197.055V56.935H197.01L194.857 61.4725H194.004L191.851 56.935H191.806V61.6647Z" fill="black"/>
<path d="M205.364 61.6647V55.9159H202.141V61.6647H201.038V55H206.473V61.6647H205.364Z" fill="black"/>
<path d="M211.302 61.8103C210.64 61.8103 210.105 61.6266 209.697 61.2591C209.289 60.8916 209.085 60.4088 209.085 59.8106C209.085 59.2388 209.296 58.7803 209.716 58.4391C210.137 58.0978 210.732 57.9056 211.501 57.8625L213.411 57.7538V57.1959C213.411 56.79 213.282 56.4722 213.026 56.2406C212.77 56.0091 212.411 55.8947 211.95 55.8947C211.527 55.8947 211.183 55.9875 210.918 56.1741C210.654 56.3588 210.484 56.6194 210.412 56.9522H209.335C209.374 56.3578 209.631 55.8703 210.108 55.4869C210.584 55.1053 211.207 54.9141 211.975 54.9141C212.757 54.9141 213.378 55.1109 213.837 55.5038C214.296 55.8966 214.525 56.4244 214.525 57.0863V61.6941H213.468V60.5484H213.443C213.242 60.9281 212.948 61.2338 212.559 61.4653C212.169 61.6969 211.751 61.8103 211.302 61.8103ZM211.553 60.8625C212.079 60.8625 212.519 60.6994 212.876 60.3722C213.233 60.0459 213.411 59.6438 213.411 59.1647V58.62L211.629 58.7288C211.18 58.7588 210.834 58.8675 210.588 59.0559C210.342 59.2434 210.219 59.4966 210.219 59.8125C210.219 60.1284 210.341 60.3825 210.585 60.5747C210.829 60.7669 211.15 60.8625 211.553 60.8625Z" fill="black"/>
<path d="M221.753 61.6647V58.6656H218.466V61.6647H217.363V55H218.466V57.7497H221.753V55H222.856V61.6647H221.753Z" fill="black"/>
<path d="M226.846 61.6647H225.743V55H226.846V59.9603H226.897L230.23 55H231.333V61.6647H230.23V56.7044H230.179L226.846 61.6647Z" fill="black"/>
<path d="M237.882 61.6656V59.2947H236.703L235.011 61.6656H233.736L235.594 59.0894C235.119 58.9525 234.749 58.7191 234.482 58.3909C234.215 58.0619 234.081 57.6681 234.081 57.2116C234.081 56.5281 234.307 55.9881 234.764 55.5934C235.218 55.1978 235.831 55 236.6 55H238.984V61.6647H237.882V61.6656ZM236.606 58.3778H237.881V55.9169H236.606C236.17 55.9169 235.825 56.0303 235.571 56.2563C235.317 56.4822 235.19 56.7944 235.19 57.1919C235.19 57.5425 235.319 57.8275 235.577 58.0469C235.837 58.2681 236.179 58.3778 236.606 58.3778Z" fill="black"/>
<defs>
<linearGradient id="paint0_linear_800_1462" x1="42.4534" y1="24.8549" x2="72.339" y2="54.7404" gradientUnits="userSpaceOnUse">
<stop stop-color="#D2EB9D"/>
<stop offset="1" stop-color="#94AE3F"/>
</linearGradient>
</defs>
</svg>
