<svg width="217" height="78" viewBox="0 0 217 78" fill="none" xmlns="http://www.w3.org/2000/svg">
<g clip-path="url(#clip0_800_11440)">
<path d="M77.7751 0H0.000732422V77.7744H77.7751V0Z" fill="#0080C8"/>
<path d="M36.4545 65.6203L55.89 12.1484H26.7206L7.28503 65.6203H36.4545ZM44.8346 55.8864L41.3214 65.6203H66.8487L70.3619 55.8864H44.8346Z" fill="white"/>
<path d="M107.106 22.2056C107.106 25.2354 106.268 27.6527 104.592 29.4899C102.916 31.3271 100.789 32.2296 98.1781 32.2296C95.8897 32.2296 94.0203 31.6172 92.5699 30.3602C91.1195 29.1031 90.2492 27.3626 89.8947 25.1064H92.4732C92.7632 26.718 93.3757 27.9428 94.3426 28.7808C95.3095 29.6188 96.5343 30.0379 98.0814 30.0379C99.9186 30.0379 101.433 29.3932 102.594 28.0717C103.786 26.7825 104.431 24.9775 104.528 22.7536H95.1806V20.6263H104.431C104.205 18.7569 103.561 17.242 102.529 16.0816C101.498 14.8891 100.015 14.3089 98.1459 14.3089C96.7277 14.3089 95.5351 14.6635 94.5682 15.3403C93.6013 16.0172 92.9566 16.9519 92.6343 18.1445H90.0558C90.1847 16.8874 90.6682 15.7916 91.5062 14.8569C92.312 13.9221 93.3112 13.2453 94.4393 12.794C95.5674 12.3428 96.7922 12.1172 98.0814 12.1172C100.982 12.1172 103.206 13.0519 104.753 14.9535C106.333 16.8874 107.106 19.3048 107.106 22.2056Z" fill="#0080C8"/>
<path d="M124.832 31.8125H122.028L116.484 15.0844L110.908 31.8125H108.233L115.098 12.5703H117.999L124.832 31.8125Z" fill="#0080C8"/>
<path d="M140.722 12.5703V14.7943H129.957V20.8216H140.046V22.9488H129.957V29.5885H140.851V31.8125H127.411V12.5703H140.722Z" fill="#0080C8"/>
<path d="M143.431 12.5703H146.944L153.132 28.8472L159.095 12.5703H162.641V31.8125H160.223V15.7612L154.196 31.8125H151.972L145.848 15.7612V31.8125H143.431V12.5703Z" fill="#0080C8"/>
<path d="M180.238 12.5703V14.7943H169.473V20.8216H179.529V22.9488H169.473V29.5885H180.367V31.8125H166.927V12.5703H180.238Z" fill="#0080C8"/>
<path d="M198.674 12.5703V31.8125H196.128V22.8199H185.975V31.8125H183.429V12.5703H185.975V20.5959H196.128V12.5703H198.674Z" fill="#0080C8"/>
<path d="M216.273 12.5703V14.7943H209.827V31.8125H207.281V14.7943H200.834V12.5703H216.273Z" fill="#0080C8"/>
<path d="M106.397 65.4609H103.593L98.0491 48.7328L92.4731 65.4609H89.7979L96.6631 46.2188H99.564L106.397 65.4609Z" fill="#0080C8"/>
<path d="M109.073 65.4609V46.2188H111.619V62.4956H111.683L121.095 46.2188H124.318V65.4609H121.772V49.1196H121.707L112.263 65.4609H109.073Z" fill="#0080C8"/>
<path d="M142.624 59.8556C142.624 60.5003 142.495 61.1449 142.205 61.8217C141.915 62.4986 141.496 63.1432 140.948 63.7878C140.4 64.4325 139.594 64.916 138.595 65.335C137.596 65.7217 136.435 65.9151 135.178 65.9151C132.761 65.9151 130.827 65.335 129.377 64.2069C127.926 63.0788 127.217 61.3705 127.217 59.1465H129.667C129.731 60.7903 130.279 61.9829 131.311 62.7242C132.342 63.4655 133.728 63.8523 135.404 63.8523C136.758 63.8523 137.886 63.4978 138.788 62.7565C139.691 62.0151 140.142 61.0482 140.142 59.8556C140.142 59.1788 140.013 58.6308 139.755 58.1474C139.497 57.6639 139.143 57.3416 138.659 57.0837C138.176 56.8581 137.66 56.6969 137.145 56.6003C136.629 56.5036 135.984 56.4713 135.307 56.4713C134.695 56.4713 134.115 56.5036 133.567 56.5358V54.4407C133.857 54.473 134.437 54.5052 135.307 54.5052C138.111 54.5052 139.497 53.3449 139.497 51.0564C139.497 48.9936 138.111 47.9622 135.372 47.9622C132.471 47.9622 130.859 49.2515 130.602 51.8622H128.152C128.216 49.8961 128.926 48.3812 130.247 47.3821C131.569 46.3507 133.309 45.8672 135.469 45.8672C137.435 45.8672 139.014 46.2862 140.239 47.1564C141.464 48.0267 142.076 49.3159 142.076 51.0564C142.076 52.0234 141.754 52.8936 141.141 53.6994C140.497 54.473 139.755 54.9887 138.885 55.2465V55.3432C140.11 55.5688 141.045 56.1168 141.721 56.987C142.269 57.7283 142.624 58.7275 142.624 59.8556Z" fill="#0080C8"/>
<path d="M145.46 65.4609V46.2188H148.007V62.4956H148.071L157.483 46.2188H160.706V65.4609H158.16V49.1196H158.095L148.651 65.4609H145.46Z" fill="#0080C8"/>
<path d="M180.399 46.2188V65.4609H177.853V56.4683H167.7V65.4609H165.154V46.2188H167.7V54.2444H177.853V46.2188H180.399Z" fill="#0080C8"/>
<path d="M187.007 65.4609H184.46V46.2188H197.095V48.4427H187.007V65.4609Z" fill="#0080C8"/>
</g>
<defs>
<clipPath id="clip0_800_11440">
<rect width="216.273" height="78" fill="white" transform="translate(0.363647)"/>
</clipPath>
</defs>
</svg>
