<svg width="347" height="78" viewBox="0 0 347 78" fill="none" xmlns="http://www.w3.org/2000/svg">
<path d="M49.6988 40.8294C45.7795 40.8294 42.6972 39.9805 40.452 38.2825C35.9713 34.8965 36.513 27.5257 38.3791 22.8637C41.0182 16.1898 47.3502 13.1129 54.278 13.1129C59.2313 13.1129 66.4052 14.3201 66.4052 20.6849C66.4052 28.9684 57.5424 30.0088 51.1415 30.0088C49.4886 30.0156 47.8365 29.9304 46.1931 29.7536C45.5432 33.7776 48.1331 34.2978 51.5748 34.3468C54.1098 34.3044 56.6248 33.891 59.0392 33.12C59.7089 32.9384 60.1274 32.8305 60.5164 33.4733L62.4366 37.463C62.7272 37.9537 62.5007 38.3463 61.7572 38.6751C58.1037 40.2896 53.5886 40.8441 49.6939 40.8441L49.6988 40.8294ZM83.668 18.7367C81.1569 18.7367 79.2366 19.8163 78.7787 22.373L76.4891 34.6904C78.0449 34.9357 79.6163 35.0702 81.1913 35.0928C83.7221 35.0928 87.932 34.4008 87.932 31.054C87.932 28.355 84.0471 28.5317 82.181 28.5317C81.3981 28.5317 80.7777 28.4532 80.9451 27.5208L81.3784 25.0965C81.5704 24.0317 82.4223 23.963 83.3479 23.8844C84.9235 23.7568 87.5528 23.168 87.5528 21.1069C87.5627 19.1979 85.091 18.717 83.668 18.717V18.7367ZM69.8814 22.319C71.0976 15.1985 77.8185 13 84.2194 13C88.3357 13 95.9627 14.0305 96.1596 19.5611C96.2532 22.2258 94.2935 24.4242 91.8907 25.3174V25.5677C94.6628 26.3528 96.9622 28.0213 96.9622 31.1178C96.9622 38.842 86.9423 40.8098 80.9993 40.8098C76.7944 40.8098 72.0528 40.4712 68.1335 38.8469C67.3752 38.5328 67.1487 38.1304 67.2669 37.3354L69.8814 22.319ZM105.392 49.7117C105.249 50.5459 104.717 50.5705 103.969 50.5705H97.7303C97.0459 50.5705 96.4747 50.5459 96.6175 49.7117L102.309 16.7983C102.386 16.4265 102.564 16.0832 102.825 15.8067C103.086 15.5303 103.419 15.3316 103.787 15.2328C107.908 13.687 112.585 13.211 116.963 13.211C124.55 13.211 130.459 16.0327 130.257 24.4193C130.011 34.5922 123.693 40.7264 113.693 40.7264C111.473 40.7415 109.256 40.5393 107.076 40.1228L105.392 49.7117ZM115.175 19.5267C113.612 19.5228 112.055 19.709 110.537 20.0813L108.183 33.861C109.763 34.2412 111.384 34.4274 113.009 34.4156C118.622 34.4156 121.3 30.0677 121.3 24.8757C121.3 20.9695 118.829 19.5267 115.175 19.5267ZM149.327 19.3255C145.54 19.3255 143.132 21.9608 142.212 25.4352C141.109 29.6015 141.316 34.6217 146.791 34.6217C152.266 34.6217 154.339 29.0371 154.339 24.3752C154.339 21.1167 152.616 19.3255 149.327 19.3255ZM150.129 13.1178C157.397 13.1178 163.423 16.1848 163.423 24.174C163.423 35.078 156.038 40.9374 145.791 40.8294C138.819 40.7558 132.551 38.2482 132.551 30.3817C132.509 27.8678 132.95 25.3691 133.851 23.0208C136.604 16.1898 143.157 13.1129 150.134 13.1129L150.129 13.1178ZM180.578 19.1734C179.232 19.1478 177.887 19.2315 176.555 19.4237L173.108 39.3621C172.961 40.2209 172.483 40.27 171.685 40.27H165.545C164.861 40.27 164.221 40.2013 164.369 39.3621L168.145 17.7061C168.579 15.2181 170.09 14.0158 172.537 13.6183C175.407 13.2295 178.303 13.0654 181.198 13.1276C186.536 13.1276 194 13.795 195.428 20.1205C195.793 22.1346 195.772 24.1996 195.364 26.2056L193.138 39.3818C192.991 40.2455 192.513 40.2896 191.715 40.2896H185.526C184.837 40.2896 184.207 40.2209 184.349 39.3818L186.703 25.759C186.974 24.2034 187.161 22.1522 186.087 20.8517C184.842 19.2912 182.37 19.1734 180.578 19.1734ZM248.747 19.3255C245.064 19.3255 242.489 21.6467 241.293 25.0033C239.368 30.4014 240.254 34.7787 246.832 34.6707C248.274 34.6358 249.706 34.4333 251.101 34.0671C251.835 29.2825 252.608 24.4635 253.637 19.7328C252.369 19.5172 251.087 19.3909 249.801 19.355C249.388 19.3304 249.033 19.3255 248.747 19.3255ZM249.166 13.1668C253.368 13.1792 257.557 13.6365 261.663 14.5311C262.701 14.7568 263.026 15.1249 262.839 16.1456C261.48 23.4477 260.205 30.7939 259.191 38.1549C259.163 38.396 259.058 38.6216 258.891 38.7984C258.724 38.9752 258.505 39.0937 258.265 39.1364C253.994 40.3146 249.579 40.8927 245.148 40.854C237.763 40.854 231.48 38.5573 231.48 30.5486C231.445 28.0862 231.835 25.6362 232.632 23.3054C235.192 16.1014 241.923 13.1668 249.166 13.1668ZM226.517 38.5917L226.394 39.318V39.3572C226.236 40.1915 225.783 40.2749 224.98 40.2749H218.86C217.954 40.2749 217.629 39.9461 217.747 39.264L221.1 19.7279H213.789C212.957 23.2563 212.188 26.8141 211.13 30.2787C209.16 36.6925 205.374 39.7351 198.943 41.2809C198.303 41.433 197.466 41.4625 197.151 40.6773L195.723 37.0459C195.359 36.1135 195.797 35.7454 196.649 35.4314C200.411 34.0426 202.1 32.4526 203.483 28.3403C204.611 24.9935 205.241 20.7045 206.236 16.7541C206.822 14.4329 208.205 13.7754 210.505 13.7754H227.245C229.525 13.7754 230.692 14.4477 230.278 16.8424V16.9013L226.517 38.5917ZM271.998 39.264C271.84 40.2013 271.402 40.2749 270.52 40.2749H264.469C263.563 40.2749 263.179 39.9412 263.292 39.264L267.561 14.7274C267.674 14.0845 268.157 13.7459 268.984 13.7459H275.045C275.878 13.7459 276.375 13.7459 276.222 14.7274L274.799 23.3594H285.937L287.414 14.7274C287.522 14.0845 288.034 13.7459 288.891 13.7459H294.957C295.779 13.7459 296.296 13.7459 296.134 14.7274L291.865 39.264C291.702 40.1964 291.348 40.2749 290.442 40.2749H284.391C283.485 40.2749 283.101 39.9412 283.214 39.264L284.947 29.1206H273.75L271.998 39.264ZM53.7806 19.2225C50.334 19.2225 47.749 21.2541 47.0351 24.6205C49.2384 24.8014 51.4539 24.7767 53.6526 24.5469C55.4547 24.3408 57.7344 23.8746 57.7344 21.6467C57.7394 19.5611 55.376 19.2225 53.7806 19.2225Z" fill="#005B95"/>
<path d="M295.032 49.1908C233.603 37.5114 175.275 44.2835 113.004 63.4515C111.257 63.9913 111.035 64.6636 113.29 64.1827C170.726 51.8555 233.09 47.7628 294.81 50.4422C296.056 50.4962 297.858 50.5354 297.853 50.2263C297.848 49.9171 297.287 49.6079 295.032 49.181" fill="#F56920"/>
<path d="M305.298 14.3735C306.069 14.3735 306.823 14.6015 307.464 15.0286C308.106 15.4556 308.605 16.0626 308.901 16.7728C309.196 17.483 309.273 18.2645 309.122 19.0184C308.972 19.7723 308.601 20.4648 308.055 21.0084C307.51 21.5519 306.815 21.9221 306.059 22.0721C305.302 22.222 304.518 22.1451 303.805 21.8509C303.093 21.5567 302.484 21.0586 302.055 20.4194C301.627 19.7803 301.398 19.0288 301.398 18.2601C301.399 17.2298 301.811 16.2419 302.542 15.5133C303.273 14.7847 304.264 14.3748 305.298 14.3735ZM305.298 13.8828C304.429 13.8828 303.58 14.1395 302.858 14.6205C302.135 15.1015 301.572 15.7852 301.24 16.585C300.908 17.3849 300.821 18.265 300.99 19.1141C301.16 19.9632 301.578 20.7432 302.192 21.3554C302.806 21.9676 303.589 22.3845 304.441 22.5534C305.293 22.7223 306.176 22.6356 306.979 22.3043C307.781 21.973 308.467 21.4119 308.95 20.6921C309.432 19.9722 309.69 19.1259 309.69 18.2601C309.688 17.1001 309.225 15.9879 308.402 15.1681C307.578 14.3482 306.462 13.8877 305.298 13.8877V13.8828Z" fill="#005B95"/>
<path d="M306.046 18.3935C306.209 18.4389 306.354 18.5351 306.459 18.6683C306.55 18.8019 306.618 18.9494 306.661 19.1051L307.065 20.5773C307.074 20.5993 307.074 20.6239 307.065 20.646C307.065 20.646 307.03 20.6803 306.991 20.6803H306.612H306.548C306.548 20.6803 306.509 20.6509 306.499 20.6165L306.129 19.2866C306.097 19.1626 306.043 19.0449 305.972 18.9382C305.914 18.8542 305.841 18.7824 305.755 18.7272C305.671 18.6746 305.577 18.638 305.479 18.6192C305.372 18.5982 305.264 18.5884 305.155 18.5898H304.076V20.6018C304.081 20.6134 304.084 20.626 304.084 20.6386C304.084 20.6513 304.081 20.6638 304.076 20.6754C304.052 20.6833 304.026 20.6833 304.002 20.6754H303.653C303.629 20.6829 303.603 20.6829 303.579 20.6754C303.574 20.6638 303.571 20.6513 303.571 20.6386C303.571 20.626 303.574 20.6134 303.579 20.6018V16.1852C303.573 16.0995 303.597 16.0142 303.648 15.9448C303.681 15.9135 303.721 15.8899 303.764 15.8755C303.808 15.8611 303.853 15.8563 303.899 15.8613H305.46C305.661 15.8579 305.861 15.8912 306.051 15.9595C306.218 16.0211 306.37 16.1163 306.499 16.2392C306.622 16.3584 306.72 16.5022 306.784 16.6612C306.851 16.83 306.884 17.0099 306.883 17.1912C306.887 17.4498 306.815 17.7039 306.676 17.9224C306.536 18.1382 306.325 18.2994 306.08 18.3788L306.046 18.3935ZM306.307 17.2108C306.307 17.101 306.291 16.9917 306.257 16.887C306.224 16.783 306.169 16.6875 306.095 16.6072C306.007 16.5272 305.903 16.4669 305.79 16.4306C305.651 16.3781 305.504 16.3531 305.356 16.357H304.086V18.104H305.317C305.451 18.1159 305.586 18.1003 305.714 18.0581C305.842 18.0159 305.96 17.948 306.06 17.8586C306.143 17.7727 306.208 17.6711 306.25 17.5598C306.292 17.4485 306.312 17.3298 306.307 17.2108Z" fill="#005B95"/>
</svg>
