<svg width="339" height="78" viewBox="0 0 339 78" fill="none" xmlns="http://www.w3.org/2000/svg">
<path d="M47.9655 19C42.5277 19 38.807 22.7206 38.807 22.7206L42.6421 27.2427C42.6421 27.2427 44.2449 25.3537 48.0227 25.3537C51.8007 25.3537 56.2082 27.8723 56.2082 33.024C56.2082 38.1757 52.0869 41.3811 48.1373 41.3811C44.1876 41.3811 42.6421 38.977 42.6421 38.977L38.807 43.4418C38.807 43.4418 42.6421 47.1625 47.9655 47.1625C53.2889 47.1625 62.0467 43.1556 62.0467 33.0812C62.0467 23.0068 53.4034 19 47.9655 19Z" fill="#1C01A9"/>
<path d="M48.5976 37.1232C50.7453 37.058 52.4334 35.264 52.3682 33.1163C52.3029 30.9685 50.5089 29.2803 48.3612 29.3456C46.2135 29.4108 44.5253 31.2048 44.5906 33.3525C44.6558 35.5003 46.4498 37.1885 48.5976 37.1232Z" fill="#1C01A9"/>
<path d="M48.4825 53.8486C44.3038 53.8486 40.2968 52.6465 36.8049 50.4141L34 54.7645C38.2932 57.5121 43.3306 59.0005 48.4825 59.0005C53.1193 59.0005 57.6987 57.7984 61.763 55.5086L59.187 51.0436C55.9242 52.8755 52.2606 53.8486 48.4825 53.8486Z" fill="#1C01A9"/>
<path d="M87.5852 32.6193C89.6459 32.6193 91.1915 28.3832 91.1915 26.7232C91.1915 25.0631 89.4169 19.625 82.2043 19.625C74.9915 19.625 71.099 19.625 71.099 19.625V46.5293C71.099 46.5293 76.8806 46.5293 83.6925 46.5293C90.5045 46.5293 92.3364 42.2933 92.3364 39.145C92.2791 35.9966 89.6459 32.6193 87.5852 32.6193ZM76.8234 24.7197C76.8234 24.7197 78.9413 24.7197 81.6891 24.7197C84.4368 24.7197 84.8947 26.7232 84.8947 27.5818C84.8947 28.4405 84.5512 30.5585 80.3724 30.5585C79.9145 30.5585 76.8806 30.5585 76.8806 30.5585V24.7197H76.8234ZM83.2919 40.8051C81.2883 40.8051 76.8806 40.8051 76.8806 40.8051V35.6531C76.8806 35.6531 80.7732 35.6531 82.8911 35.6531C85.0092 35.6531 85.9823 36.4545 85.9823 38.1146C85.9823 39.7746 85.2954 40.8051 83.2919 40.8051Z" fill="#1C01A9"/>
<path d="M113.291 19C105.62 19 99.3812 25.2965 99.3812 33.0812C99.3812 40.8659 105.62 47.1625 113.291 47.1625C120.961 47.1625 127.2 40.8659 127.2 33.0812C127.2 25.2965 120.961 19 113.291 19ZM113.004 41.4384C108.597 41.4384 105.048 37.7177 105.048 33.0812C105.048 28.4447 108.597 24.7241 113.004 24.7241C117.412 24.7241 120.961 28.4447 120.961 33.0812C120.961 37.7177 117.412 41.4384 113.004 41.4384Z" fill="#1C01A9"/>
<path d="M190.582 19C183.827 19 178.16 23.9231 176.9 30.3919L172.435 31.0788V19.6297H166.138V46.5352H172.378V36.7462L176.9 35.8875C178.16 42.3563 183.827 47.2221 190.524 47.2221C198.196 47.2221 204.436 40.9251 204.436 33.1398C204.549 25.297 198.31 19 190.582 19ZM190.353 41.4403C185.945 41.4403 182.396 37.7193 182.396 33.0825C182.396 28.4455 185.945 24.7246 190.353 24.7246C194.761 24.7246 198.31 28.4455 198.31 33.0825C198.31 37.7193 194.761 41.4403 190.353 41.4403Z" fill="#1C01A9"/>
<path d="M142.722 19.625L131.788 46.5293H138.657L145.012 30.5585L145.412 30.5012L151.995 46.5293H158.406L147.473 19.625H142.722Z" fill="#1C01A9"/>
<path d="M237.073 19.625H230.949V40.7469H218.126V19.625H212.346V46.5281H241.367V40.8613H237.073V19.625Z" fill="#1C01A9"/>
<path d="M256.255 35.6531V19.625H249.786V46.5293H255.568L268.104 29.8715V46.5293H274.401V19.625H268.448L256.255 35.6531Z" fill="#1C01A9"/>
<path d="M294.952 19.625C289.457 19.625 282.989 20.3692 282.989 28.6122C282.989 32.9627 285.278 35.8821 288.14 36.9125C285.621 39.9464 281.042 46.5293 281.042 46.5293H288.998L295.066 37.7711H298.901V46.5293H305.256V19.625C305.313 19.625 300.504 19.625 294.952 19.625ZM299.074 32.7909C299.074 32.7909 297.471 32.7909 293.75 32.7909C290.028 32.7909 289.857 30.1578 289.857 28.6122C289.857 27.0666 290.372 25.1776 293.978 25.1776C297.585 25.1776 299.074 25.1776 299.074 25.1776V32.7909Z" fill="#1C01A9"/>
</svg>
