<svg width="307" height="78" viewBox="0 0 307 78" fill="none" xmlns="http://www.w3.org/2000/svg">
<path fill-rule="evenodd" clip-rule="evenodd" d="M229.127 23.264L230.015 29.4253H228.198L229.127 23.264ZM222.06 37.3988H226.906L227.471 33.8953H230.823L231.389 37.3988H236.235L232.156 17.1027H226.179L222.06 37.3988ZM190.601 17.1027H194.64L198.193 21.8949L201.787 17.1027H205.826V37.3988H201.06V24.9958L198.193 28.5392L195.326 24.9958V37.3586H190.561V17.1027H190.601ZM105.916 17.1429H115.689V22.1766H110.762V37.3181H105.916V17.1432V17.1429ZM254.044 17.1027H258.688V24.3919H259.698L262.363 17.1029H267.451L263.817 26.6873L267.976 37.3181H262.484L259.819 29.1838H258.688V37.3181H254.044V17.1029V17.1027ZM238.254 17.1027H242.898V24.3919H246.209V17.1027H250.894V37.3586H246.209V29.2238H242.898V37.3181H238.254V17.1029V17.1027ZM213.7 33.2509V28.6603H214.387C214.952 28.6603 216.447 28.6603 216.447 30.7542C216.447 32.8483 214.952 33.2912 214.387 33.2912L213.7 33.2509ZM209.056 37.2779H214.75C215.598 37.3181 216.487 37.157 217.295 36.8351C218.102 36.5129 218.829 36.0296 219.435 35.3851C220.041 34.7812 220.485 34.0162 220.808 33.2107C221.091 32.4053 221.212 31.5194 221.131 30.6738C221.131 25.5192 217.133 24.6331 214.548 24.6331H213.741V21.9753H220.081V17.1429H209.097V37.3181H209.056V37.2779ZM180.747 32.6468C179.051 32.6468 178.203 30.7544 178.203 27.2507C178.203 23.7473 179.051 21.8547 180.747 21.8547C182.443 21.8547 183.292 23.7473 183.292 27.2507C183.292 30.7542 182.443 32.6468 180.747 32.6468ZM180.747 37.439C186.401 37.439 188.299 32.3651 188.299 27.2912C188.299 22.2171 186.401 17.1429 180.747 17.1429C175.134 17.1429 173.196 22.2168 173.196 27.291C173.196 32.3648 175.094 37.439 180.747 37.439ZM164.109 21.5727H165.24C166.33 21.5727 167.017 22.2171 167.017 23.8681C167.017 26.0829 165.886 26.2038 165.24 26.2038H164.109V21.5727ZM159.425 37.3586H164.15V30.6738H165.765C170.49 30.6738 171.944 26.4858 171.944 23.8279C171.944 21.1701 170.288 17.0625 165.765 17.0625H159.425V37.3586ZM143.675 17.1027H156.679V37.3988H151.913V21.9753H148.44V37.3988H143.675V17.1027ZM133.943 25.036C134.225 25.0762 134.508 25.036 134.75 24.9555C134.993 24.8749 135.235 24.7138 135.477 24.5527C135.679 24.3916 135.841 24.1499 135.962 23.9084C136.083 23.6666 136.164 23.3849 136.164 23.1431C136.164 22.9016 136.083 22.6197 136.002 22.3781C135.887 22.1437 135.721 21.9374 135.517 21.774C135.316 21.6132 135.073 21.4923 134.831 21.4116C134.589 21.3312 134.306 21.3312 134.064 21.3312C133.175 21.3312 132.287 21.5323 131.439 21.8949V17.586C132.812 17.2236 134.185 17.0625 135.598 17.0625C139.475 17.0625 141.252 19.6801 141.252 22.1766C141.292 23.1431 141.01 24.1097 140.444 24.9553C139.919 25.7607 139.112 26.4051 138.183 26.7675V26.9688C139.192 27.2507 140.04 27.8951 140.646 28.7407C141.252 29.5864 141.535 30.6333 141.454 31.6805C141.454 35.3853 138.748 37.3988 135.275 37.3988C133.7 37.4792 132.166 37.1168 130.793 36.392L130.873 32.3246C131.883 32.7677 132.933 32.969 134.023 32.9288C134.306 32.969 134.548 32.9288 134.791 32.8483C135.033 32.7679 135.275 32.6468 135.477 32.4455C135.679 32.2847 135.841 32.0429 135.962 31.8012C136.083 31.5596 136.123 31.3179 136.123 31.0362C136.123 29.9488 135.396 29.1838 133.741 29.1838H131.883V25.036H133.943ZM122.272 23.2238L123.201 29.3851H121.383L122.272 23.2238ZM115.204 37.3586H120.05L120.616 33.8551H123.927L124.493 37.3586H129.339L125.26 17.0625H119.283L115.204 37.3586ZM111.933 53.1444H113.67L112.782 47.0633L111.933 53.1444ZM115.73 41.0636L119.687 60.997H114.962L114.397 57.5742H111.166L110.601 60.997H105.876L109.834 41.0636H115.73ZM155.992 45.7746C154.377 45.7746 153.529 47.6672 153.529 51.1711C153.529 54.6746 154.377 56.5674 155.992 56.5674C157.648 56.5674 158.456 54.6746 158.456 51.1711C158.456 47.6672 157.607 45.7746 155.992 45.7746ZM155.992 40.9422C161.484 40.9422 163.342 46.0566 163.342 51.1711C163.342 56.2855 161.484 61.3996 155.992 61.3996C150.5 61.3996 148.642 56.2855 148.642 51.1711C148.642 46.0566 150.5 40.9422 155.992 40.9422ZM134.548 41.0636V46.0166H138.425V60.9563H143.11V46.0166H146.987V41.0636H134.548ZM126.027 56.6881V52.7011H126.835C127.239 52.7011 127.562 52.8624 127.845 53.2246C128.127 53.547 128.249 54.0707 128.249 54.7146C128.249 55.3592 128.127 55.842 127.845 56.2048C127.562 56.5268 127.239 56.7281 126.835 56.7281H126.027V56.6881ZM126.027 48.8355V45.2918H126.714C127.078 45.2918 127.36 45.4524 127.562 45.7349C127.764 46.0166 127.885 46.4592 127.885 47.0633C127.885 47.6672 127.764 48.1107 127.562 48.4329C127.36 48.7146 127.078 48.8755 126.714 48.8755H126.027V48.8355ZM121.464 60.9563H126.956C127.885 60.9563 128.733 60.7957 129.46 60.5137C130.187 60.2318 130.833 59.8292 131.318 59.3454C131.843 58.8224 132.206 58.2583 132.489 57.5742C132.772 56.8894 132.893 56.1646 132.893 55.3592C132.893 54.8352 132.852 54.3117 132.731 53.7887C132.61 53.2653 132.449 52.782 132.247 52.339C132.004 51.8957 131.722 51.4928 131.398 51.1711C131.035 50.849 130.631 50.5672 130.106 50.4057C130.187 50.4057 130.308 50.2848 130.55 50.1644C130.793 50.0028 131.035 49.7618 131.318 49.4794C131.601 49.1577 131.802 48.7551 132.045 48.2316C132.247 47.7079 132.368 47.0633 132.368 46.3388C132.368 45.614 132.247 44.889 131.964 44.2444C131.727 43.6085 131.355 43.0315 130.874 42.5531C130.389 42.0703 129.824 41.7077 129.137 41.4255C128.45 41.1435 127.683 41.0229 126.835 41.0229H121.464V60.9563ZM226.422 61.2785H231.066V53.2246H234.377V61.3192H239.062V41.0636H234.377V48.3522H231.066V41.0636H226.422V61.2785ZM242.333 61.2785H247.179V46.1375H252.105V41.0636H242.333V61.2785ZM198.113 48.9564V53.2246H200.051C201.666 53.2246 202.393 53.9498 202.393 55.0774C202.393 55.3592 202.312 55.6009 202.191 55.842C202.07 56.0842 201.909 56.2855 201.707 56.4868C201.505 56.6474 201.262 56.809 201.02 56.8894C200.778 56.97 200.495 57.0103 200.253 56.97C199.162 57.0103 198.072 56.809 197.103 56.3659L197.022 60.4333C198.395 61.1576 199.97 61.5205 201.545 61.44C204.978 61.44 207.724 59.3861 207.724 55.6813C207.804 54.6339 207.522 53.6272 206.916 52.782C206.31 51.9364 205.462 51.2915 204.453 51.0096V50.8083C205.382 50.4464 206.149 49.7618 206.674 48.9564C207.199 48.1107 207.441 47.1442 207.401 46.1375C207.401 43.6005 205.664 40.9829 201.747 40.9829C200.333 40.9829 198.961 41.1435 197.587 41.5064V45.7349C198.435 45.372 199.324 45.2111 200.212 45.2511C200.455 45.2111 200.737 45.2511 200.98 45.332C201.222 45.4127 201.464 45.5333 201.666 45.6944C201.868 45.8553 202.03 46.0972 202.151 46.2985C202.272 46.5401 202.312 46.7813 202.312 47.0633C202.272 47.5868 202.03 48.1107 201.626 48.4726C201.222 48.8355 200.697 48.9961 200.132 48.9961H198.113V48.9564ZM167.179 40.9422V52.057C167.179 55.6407 166.694 56.4868 165.684 56.4868C165.321 56.4461 164.957 56.4064 164.594 56.3252V61.0772C165.2 61.3192 165.846 61.44 166.532 61.44C171.621 61.44 171.621 56.5674 171.621 53.8285V45.8153H173.478V61.1576H177.921V40.9422H167.179ZM181.393 41.1038V61.3192H185.715L190.036 50.4057V61.3192H194.357V41.1038H190.036L185.755 52.0166V41.1038H181.393ZM214.387 41.1038V52.0166L218.668 41.1038H223.029V61.3192H218.708V50.4057L214.387 61.3192H210.066V41.1038H214.387Z" fill="#05326E"/>
<path d="M39 38.9601C39 53.2801 50.6002 64.92 64.84 64.92C79.08 64.92 90.6799 53.2801 90.6799 38.9601C90.6799 24.6399 79.08 13 64.84 13C50.5999 13 39 24.6399 39 38.9601ZM39.8799 38.9601C39.8799 25.1199 51.0799 13.8799 64.8402 13.8799C78.6003 13.8799 89.8002 25.1601 89.8002 38.9601C89.8002 52.8001 78.6003 64.0401 64.8402 64.0401C51.0804 64.0401 39.8802 52.8001 39.8802 38.9601H39.8799ZM47.0402 31.8401C53.6398 27.4801 60.9599 24.96 73.3598 27.0801C74.0399 26.6801 74.3999 26.3201 74.6 25.4801C71.52 24.3601 68.1599 23.9601 63.7999 24.04C59.9201 24.16 52.88 25.6 49.1601 27.8401L50.3201 26.4C52.9599 24.88 59.7599 22.7998 64.8799 22.7201C68.4799 22.6399 70.36 22.84 74.64 23.9998C74.28 23.24 73.3598 22.88 72.0799 22.3199C67.92 20.4401 60.1599 20.2799 53.7999 23.0801C54.5999 22.56 55.3999 22.04 56.4 21.6001C58.48 20.6399 61.92 19.72 66.1999 19.76C69.6399 19.8002 73.6799 21 76.2 23.4799C76.6 23.9601 76.8399 24.48 76.9601 24.92C78.9198 25.9201 80.0798 26.88 80.7199 27.9601C81 28.52 81.08 29.1601 80.96 29.8401C81.8 30.3201 82.16 30.76 82.56 31.28C82.8399 31.7199 83.08 32.2401 83.1199 32.7201C83.1999 33.3599 83.2798 34.04 82.64 34.84C83.32 35.16 83.84 36.1199 83.9199 36.5199C84.24 38 83.2798 39.48 81.9999 40.6001C80.56 41.88 77.3601 43.4001 74.7599 44.0801C69.56 45.4001 64.9999 45.96 61.3599 46.6001C62.9999 47 65.2 47.52 68.8399 47.52C76.5601 47.52 83.4 43.84 83.4 43.84C83.4 43.84 83.2399 44.32 83.08 44.76C78.16 47.7201 70.36 49 67.0401 48.8401C63.64 48.68 60.8 48.1601 58 47.3201C57.16 47.56 56.3201 47.8 55.4801 48.1601C59.7999 50.2 62.9999 50.64 66.6401 50.9201C70.32 51.2001 76.4399 50.28 81.6399 48.3999C81.4 48.64 81.2798 49 81.04 49.2401C78.3999 50.64 72.7999 52.0401 70 52.16C67.2 52.28 63.7999 52.16 60.84 51.6001C58.2801 51.12 56.1999 50.28 54.04 49.3201C53.64 49.5999 53.4399 49.9999 53.3599 50.3999C61.7999 54.8801 69.8001 55 78.8399 52.16L77.9999 52.96C68 57.04 60.1999 55.44 54.1599 52.5201C53.9601 52.4401 53.72 52.32 53.5601 52.24C54.12 53.2401 58.7201 56.6 63.8801 57.04C67.4401 57.32 71.7598 56.7199 74.36 55.6801L72.8399 56.4801C71.5999 57.0799 68.28 58.4801 63.6799 58.2C57.5201 57.8 54.08 55.04 52.52 53.6001C51.7999 52.9201 51.4399 52.16 51.24 51.2001C49.8399 50.4801 48.96 49.7201 48.2399 48.5601C47.8 47.88 47.8799 47.16 48.0001 46.5201C48.04 46.32 48.08 46.1201 48.16 45.96C47.4799 45.48 46.7998 44.9601 46.52 44.4399C45.9199 43.3201 46.2799 42.4 46.7199 41.6399C46.3599 41.2399 46.0001 40.8 45.8802 40.4C45.72 39.88 45.68 39.4001 45.72 38.8799C45.8399 37.96 46.3199 37.12 46.96 36.36C48.3201 34.8 50.4001 33.6 54.0398 32.4C57.5998 31.24 59.0001 31.0399 61.6802 30.44C64.8 29.72 68.5199 29.4801 71.6799 28.4C62.9999 26.7601 53.9201 28.1599 46.56 33.28L47.0402 31.8401ZM76.72 26.44C76.6 26.88 76.1601 27.3602 75.84 27.72C76.7999 27.9601 77.7601 28.3201 78.68 28.6801C78.5601 27.8401 77.5599 26.9999 76.72 26.44ZM49.8799 43.96C49.32 43.6399 48.92 43.44 48.48 43.08C48.2399 43.6399 48.7201 44.24 49.2001 44.5201C49.4399 44.32 49.68 44.1601 49.8799 43.96ZM79.2399 32.5199C79.88 32.84 80.4399 33.0801 80.96 33.4401C81.36 32.6801 81.1199 32.1999 80.28 31.4801C79.9999 31.8799 79.6399 32.1999 79.2399 32.5199ZM77.4 33.64C76.1199 34.2401 74.32 34.84 71.6799 35.52C69.56 36.04 64.32 36.8 58.7201 38.04C56.92 38.44 52.12 39.56 49.76 41.6C50.4001 42.1201 50.84 42.28 51.5601 42.68C52.56 42.0399 53.8801 41.4401 55.8399 40.9201C59.28 40 61.8399 39.6 64.9599 39.12C68.0399 38.6001 73.8 37.4001 77 36.2401C78.0399 35.8801 79 35.3601 79.7201 34.8C79.52 34.5601 77.48 33.56 77.4 33.64ZM53.1601 47.12C53.64 46.8399 54.1999 46.5601 54.84 46.28C53.9601 45.92 53.0399 45.48 52.08 45.08C51.64 45.3601 51.28 45.6399 50.9999 45.92L53.1601 47.12ZM50.1999 47.4C50.1999 47.96 50.52 48.4801 51.32 49.12C51.3999 48.7999 51.5601 48.5601 51.8002 48.28C51.24 48.0401 50.6799 47.7201 50.1999 47.4ZM54.5599 36.72C60.88 34.88 67.48 34.2801 74.2001 32.5199C71.56 31.8001 70.1199 31.4801 67.3599 31.8001C63.3199 32.2801 58.9199 33.16 55.1201 34.2801C53.64 34.72 45.8399 36.9601 48.08 40.0799C48.08 40.1201 49.3999 38.2401 54.5599 36.72ZM78.2 30.2399C77.1599 29.7599 75.88 29.32 74.5199 28.9602C73.92 29.4401 73.1999 29.8801 72.2001 30.2801C73.92 30.5999 75.16 31.0401 76.6 31.4801C76.8399 31.6 77.9999 30.48 78.2 30.2399ZM81.3201 36.32C81.1199 36.4799 80.9201 36.6401 80.68 36.84C79.2399 37.96 77 38.84 73.88 39.6799C67.3998 41.4401 62.6801 41.6799 57.3199 43.0001C56.2801 43.2399 55.2 43.6 54.1599 44.0399C55.1601 44.5601 56.2399 45.0001 57.3599 45.44C59.5201 44.7999 60.5999 44.5201 63.7199 43.9999C64.9199 43.8001 68.6401 43.16 71.2799 42.5601C76.1199 41.52 83.1999 39.2799 81.3201 36.32Z" fill="#05326E"/>
</svg>
