<svg width="263" height="78" viewBox="0 0 263 78" fill="none" xmlns="http://www.w3.org/2000/svg">
<path d="M175.73 30.0656V16.7256H171.36V36.0456H176.42L184.125 23.1656V36.0456H188.495V16.7256H183.55L175.73 30.0656ZM135.595 16.7256L129.5 36.0456H134.1L135.595 30.9856H142.38L143.875 36.0456H148.59L142.495 16.7256H135.595ZM136.86 26.9606L138.815 20.7506H139.275L141.23 26.9606H136.86ZM210.92 16.7256V20.7506H216.21V36.0456H220.695V20.7506H224.605L226.905 16.7256H210.92ZM102.59 16.7256H93.0451L90.7451 20.7506H94.3101V36.0456H98.7951V29.9506H102.59C107.305 29.9506 109.95 27.3056 109.95 23.3956C109.95 19.7156 107.075 16.7256 102.59 16.7256ZM102.36 26.0406H98.7951V20.7506H102.36C104.89 20.7506 105.465 22.2456 105.465 23.3956C105.465 24.4306 104.89 26.0406 102.36 26.0406ZM201.03 20.5206C203.1 20.5206 204.71 21.3256 205.86 22.8206L209.655 20.8656C208.62 19.1406 206.32 16.2656 201.49 16.2656C195.855 16.2656 191.14 20.8656 191.14 26.5006C191.14 32.4806 195.51 36.7356 201.145 36.7356C203.1 36.7356 205.17 36.1606 206.78 35.2406C207.93 34.5506 209.08 33.2856 209.655 32.2506C209.655 32.2506 205.975 30.1806 205.86 30.2956C204.94 31.5606 203.56 32.4806 201.03 32.4806C197.925 32.4806 195.51 30.1806 195.51 26.6156C195.51 22.8206 198.155 20.5206 201.03 20.5206ZM152.845 28.8006C152.845 30.6406 152.155 31.9056 150.315 31.9056H149.97L151.35 36.0456C151.465 36.0456 151.81 36.0456 151.925 36.0456C155.145 36.0456 157.33 33.8606 157.33 28.9156V20.7506H162.735V36.0456H167.22V16.7256H152.96L152.845 28.8006ZM116.85 28.3406H124.67V24.3156H116.85V20.7506H127.2V16.7256H112.365V36.0456H126.855L128.12 32.0206H116.965L116.85 28.3406Z" fill="black"/>
<path d="M117.075 42.5703L110.98 61.8903H115.58L117.075 56.8303H123.86L125.355 61.8903H130.07L123.86 42.5703H117.075ZM118.225 52.8053L120.18 46.5953H120.64L122.595 52.8053H118.225ZM102.585 48.8953H98.79V46.5953H108.68V42.5703H92.925L90.625 46.5953H94.19V61.8903H102.47C106.955 61.8903 109.945 58.7853 109.945 55.2203C110.06 51.4253 107.3 48.8953 102.585 48.8953ZM102.355 58.0953H98.79V52.6903H102.355C104.885 52.6903 105.46 54.3003 105.46 55.3353C105.46 56.3703 104.885 58.0953 102.355 58.0953ZM144.56 49.9303H136.97V42.5703H132.485V61.8903H136.97V53.9553H144.56V61.8903H149.045V42.5703H144.56V49.9303ZM164.8 52.0003L169.975 42.5703H165.49L161.235 49.9303H157.785V42.5703H153.3V61.8903H157.785V53.9553H161.235L165.72 61.8903H170.665L164.8 52.0003Z" fill="black"/>
<path d="M36 16V62H82V16H36ZM74.295 54.295H43.705V23.705H74.41V54.295H74.295ZM68.43 29.8H53.135L49.57 35.895H64.865L68.43 29.8ZM68.43 42.105H53.135L49.57 48.2H64.865L68.43 42.105Z" fill="url(#paint0_radial_800_10322)"/>
<defs>
<radialGradient id="paint0_radial_800_10322" cx="0" cy="0" r="1" gradientUnits="userSpaceOnUse" gradientTransform="translate(19.1109 22.9683) scale(65.5637)">
<stop stop-color="#0093D8"/>
<stop offset="0.3" stop-color="#006CB7"/>
<stop offset="1" stop-color="#08296C"/>
</radialGradient>
</defs>
</svg>
