<svg width="241" height="78" viewBox="0 0 241 78" fill="none" xmlns="http://www.w3.org/2000/svg">
<g clip-path="url(#clip0_800_11421)">
<g clip-path="url(#clip1_800_11421)">
<path d="M159.784 36.6516L159.929 34.4633C160.221 34.5998 160.657 34.5998 161.093 34.5998C163.13 34.5998 163.275 31.7276 163.275 23.5201H172.878V36.6516H169.968V25.7088H165.895C165.895 32.8219 165.604 36.7885 161.821 36.7885C161.093 36.9251 160.366 36.7885 159.784 36.6516ZM176.224 23.6571H178.988V28.4445C178.988 29.8124 178.843 32.2746 178.843 33.5055L184.807 23.6567H187.863V36.7885H185.098V32.0011C185.098 30.6332 185.244 28.171 185.244 26.9401L179.279 36.7885H176.223V23.6571H176.224ZM190.19 36.5146L190.481 34.1894C191.499 34.7364 192.808 34.8733 193.972 34.8733C195.282 34.8733 196.882 34.5998 196.882 32.9581C196.882 31.1798 194.845 31.0429 193.535 31.0429C193.245 31.0429 192.954 31.0429 192.517 31.0429V28.9911C192.808 28.9911 193.099 28.9911 193.245 28.9911C194.554 28.9911 196.736 28.7176 196.736 27.0759C196.736 25.7081 195.281 25.4346 194.118 25.4346C193.099 25.4346 191.644 25.7081 190.771 25.9816L190.48 23.9298C191.644 23.6563 193.245 23.3828 194.554 23.3828C197.318 23.3828 199.5 24.3402 199.5 26.8024C199.5 28.1703 198.482 29.2646 196.882 29.6747C198.628 29.9481 199.791 31.3164 199.791 32.8208C199.791 35.6934 197.464 36.7874 194.263 36.7874C192.808 37.062 191.354 36.7885 190.19 36.5146ZM202.556 23.6571H205.32V28.4445C205.32 29.8124 205.175 32.2746 205.175 33.5055L211.14 23.6567H214.195V36.7885H211.43V32.0011C211.43 30.6332 211.576 28.171 211.576 26.9401L205.611 36.7885H202.556V23.6571ZM217.686 23.6571H220.595V28.8549H226.124V23.6571H229.033V36.7885H226.124V31.0433H220.596V36.7885H217.686V23.6571H217.686ZM232.234 23.6571H240.381V25.8458H234.999V36.7885H232.089V23.6571H232.234ZM127.341 56.4853H133.597C135.925 56.4853 137.38 55.9383 138.398 54.707C138.834 54.16 139.562 53.0657 139.562 51.0139C139.562 48.9622 138.835 47.5939 137.38 46.5C136.507 45.953 135.343 45.5426 133.452 45.5426H127.196V56.4853H127.341ZM119.05 63.0514V23.6571H146.4L144.072 30.2228H127.342V38.9768H134.18C139.562 38.9768 142.472 40.2081 144.364 41.7125C145.819 42.9438 148.437 45.6791 148.437 51.0143C148.437 56.3487 145.819 59.2214 143.491 60.7262C140.872 62.3675 138.108 62.9145 132.579 62.9145H119.05V63.0514H119.05ZM94.8992 63.0514V30.2228H82.8238V23.6571H116.576L114.248 30.2228H103.483V63.0514H94.8992ZM61.1474 39.3873H65.8027C67.2579 39.3873 67.9849 39.3873 68.7123 39.2507C70.6036 38.7037 71.9128 37.062 71.9128 34.8737C71.9128 32.2749 70.6036 31.0437 68.7123 30.4967C67.9849 30.2232 67.2575 30.0862 65.6571 30.0862H61.2926V39.3877H61.1474V39.3873ZM61.293 46.2269V56.6222H67.1123C68.8584 56.6222 70.4588 56.4857 71.6223 55.5279C72.7858 54.5701 73.2224 53.2026 73.2224 51.5613C73.2224 50.3304 72.7862 49.0995 72.2041 48.1417C71.0402 46.7735 69.4401 46.3634 66.8214 46.3634H61.293V46.2269ZM74.6776 42.1233C76.2776 42.8069 77.7328 43.7647 78.6055 44.3117C81.079 46.2269 82.0972 48.6887 82.0972 51.9717C82.0972 57.3062 79.042 61.2731 74.0954 62.504C72.6406 62.9145 71.0402 63.0514 67.9849 63.0514H52.8551V23.6571H66.2396C69.0036 23.6571 70.8949 23.794 72.4954 24.204C77.2959 25.4353 80.4968 28.5811 80.4968 33.5055C80.4968 36.1042 79.4785 38.4299 77.8785 39.9346C77.2959 40.6182 76.2776 41.439 74.6776 42.1233Z" fill="#263975"/>
<path d="M44.2722 20.6434H8.77471L11.3934 14.625H46.8909L44.2722 20.6434ZM42.963 23.6529H7.46555L4.84682 29.6713H40.3447L42.963 23.6529ZM39.1804 32.5439H3.68289L1.06458 38.5623H36.562L39.1804 32.5439Z" fill="#009FDF"/>
</g>
</g>
<defs>
<clipPath id="clip0_800_11421">
<rect width="239.318" height="78" fill="white" transform="translate(0.84082)"/>
</clipPath>
<clipPath id="clip1_800_11421">
<rect width="239.318" height="48.75" fill="white" transform="translate(1.06299 14.625)"/>
</clipPath>
</defs>
</svg>
