<svg viewBox="0 0 24 24" fill="none" xmlns="http://www.w3.org/2000/svg">
<path d="M1.22888 4.51802C0.90296 4.51802 0.59039 4.64457 0.35993 4.86984C0.129471 5.09511 0 5.40064 0 5.71922V19.2988C0 19.6174 0.129471 19.9229 0.35993 20.1482C0.59039 20.3734 0.90296 20.5 1.22888 20.5H22.7711C23.097 20.5 23.4096 20.3734 23.6401 20.1482C23.8705 19.9229 24 19.6174 24 19.2988V5.7012C24 5.38262 23.8705 5.07709 23.6401 4.85182C23.4096 4.62655 23.097 4.5 22.7711 4.5H1.22888V4.51802ZM21.6344 6.81231L12 13.7432L2.36559 6.81231" fill="#FF8E29"/>
</svg>
