<svg viewBox="0 0 24 24" fill="none" xmlns="http://www.w3.org/2000/svg">
<mask id="path-1-inside-1_1197_10672" fill="white">
<path fill-rule="evenodd" clip-rule="evenodd" d="M3 9C3 4.02944 7.02944 0 12 0C16.9706 0 21 4.02944 21 9C21 9 21.2782 13.0763 17 19C15.3832 21.2386 12.5 24 12 24C11.5 24 8.61679 21.2386 7 19C4.53738 15.5902 3 12.5 3 9ZM12 14C14.4853 14 16.5 11.9853 16.5 9.5C16.5 7.01472 14.4853 5 12 5C9.51472 5 7.5 7.01472 7.5 9.5C7.5 11.9853 9.51472 14 12 14Z"/>
</mask>
<path fill-rule="evenodd" clip-rule="evenodd" d="M3 9C3 4.02944 7.02944 0 12 0C16.9706 0 21 4.02944 21 9C21 9 21.2782 13.0763 17 19C15.3832 21.2386 12.5 24 12 24C11.5 24 8.61679 21.2386 7 19C4.53738 15.5902 3 12.5 3 9ZM12 14C14.4853 14 16.5 11.9853 16.5 9.5C16.5 7.01472 14.4853 5 12 5C9.51472 5 7.5 7.01472 7.5 9.5C7.5 11.9853 9.51472 14 12 14Z" fill="#FF8E29"/>
<path d="M21 9H20.5V9.01704L20.5012 9.03405L21 9ZM17 19L17.4053 19.2927L17.4053 19.2927L17 19ZM7 19L6.59466 19.2927L6.59466 19.2927L7 19ZM12 -0.5C6.7533 -0.5 2.5 3.75329 2.5 9H3.5C3.5 4.30558 7.30558 0.5 12 0.5V-0.5ZM21.5 9C21.5 3.75329 17.2467 -0.5 12 -0.5V0.5C16.6944 0.5 20.5 4.30558 20.5 9H21.5ZM17.4053 19.2927C19.5802 16.2813 20.6068 13.7255 21.0877 11.9064C21.328 10.9975 21.4317 10.2743 21.4748 9.77225C21.4963 9.52126 21.5028 9.32562 21.5036 9.18976C21.504 9.12183 21.503 9.06885 21.5018 9.03136C21.5012 9.01262 21.5006 8.99775 21.5 8.98683C21.4998 8.98137 21.4995 8.97689 21.4993 8.97341C21.4992 8.97166 21.4991 8.97017 21.499 8.96893C21.499 8.96831 21.499 8.96775 21.4989 8.96725C21.4989 8.967 21.4989 8.96668 21.4989 8.96655C21.4989 8.96624 21.4988 8.96595 21 9C20.5012 9.03405 20.5011 9.03379 20.5011 9.03354C20.5011 9.03348 20.5011 9.03325 20.5011 9.03312C20.5011 9.03287 20.5011 9.03269 20.5011 9.03256C20.501 9.03231 20.501 9.03231 20.5011 9.03255C20.5011 9.03303 20.5012 9.03449 20.5013 9.03692C20.5015 9.04178 20.5019 9.05053 20.5023 9.06309C20.5031 9.0882 20.5039 9.12858 20.5036 9.18368C20.5029 9.29388 20.4977 9.46299 20.4785 9.6867C20.44 10.134 20.3459 10.8002 20.121 11.6508C19.6715 13.3508 18.698 15.7949 16.5947 18.7073L17.4053 19.2927ZM12 24.5C12.1312 24.5 12.2452 24.4588 12.316 24.4288C12.3961 24.3948 12.4768 24.3503 12.5541 24.3028C12.709 24.2075 12.8872 24.0766 13.0779 23.9234C13.4614 23.6154 13.9323 23.1878 14.432 22.6958C15.4307 21.7125 16.5759 20.4412 17.4053 19.2927L16.5947 18.7073C15.8073 19.7974 14.7025 21.0261 13.7304 21.9832C13.2447 22.4614 12.8 22.864 12.4517 23.1437C12.2766 23.2844 12.1348 23.3867 12.0301 23.4511C11.9775 23.4835 11.9434 23.5006 11.9256 23.5081C11.8984 23.5197 11.9313 23.5 12 23.5V24.5ZM6.59466 19.2927C7.42411 20.4412 8.56932 21.7125 9.56801 22.6958C10.0677 23.1878 10.5386 23.6154 10.9221 23.9234C11.1128 24.0766 11.291 24.2075 11.4459 24.3028C11.5232 24.3503 11.6039 24.3948 11.684 24.4288C11.7548 24.4588 11.8688 24.5 12 24.5V23.5C12.0687 23.5 12.1016 23.5197 12.0744 23.5081C12.0566 23.5006 12.0225 23.4835 11.9699 23.4511C11.8652 23.3867 11.7234 23.2844 11.5483 23.1437C11.2 22.864 10.7553 22.4614 10.2696 21.9832C9.29747 21.0261 8.19268 19.7974 7.40534 18.7073L6.59466 19.2927ZM2.5 9C2.5 12.658 4.11118 15.8541 6.59466 19.2927L7.40534 18.7073C4.96359 15.3264 3.5 12.342 3.5 9H2.5ZM16 9.5C16 11.7091 14.2091 13.5 12 13.5V14.5C14.7614 14.5 17 12.2614 17 9.5H16ZM12 5.5C14.2091 5.5 16 7.29086 16 9.5H17C17 6.73858 14.7614 4.5 12 4.5V5.5ZM8 9.5C8 7.29086 9.79086 5.5 12 5.5V4.5C9.23858 4.5 7 6.73858 7 9.5H8ZM12 13.5C9.79086 13.5 8 11.7091 8 9.5H7C7 12.2614 9.23858 14.5 12 14.5V13.5Z" fill="#FF8E29" mask="url(#path-1-inside-1_1197_10672)"/>
</svg>
