<svg viewBox="0 0 24 24" fill="none" xmlns="http://www.w3.org/2000/svg">
<g clip-path="url(#clip0_1197_10661)">
<path d="M22.8059 16.3197L22.8059 16.3197L22.8108 16.3202C22.9522 16.3349 23.0891 16.3781 23.2132 16.4474C23.3373 16.5167 23.446 16.6106 23.5327 16.7233C23.6194 16.836 23.6823 16.9652 23.7175 17.103C23.7526 17.2408 23.7594 17.3843 23.7373 17.5248C23.7353 17.5377 23.7343 17.5506 23.7343 17.5636V23.072C23.7166 23.2391 23.6412 23.395 23.521 23.5126C23.3983 23.6327 23.2369 23.7052 23.0656 23.7171L23.0645 23.7172C20.7025 23.8921 18.2454 23.3433 16.2074 22.6583C14.1758 21.9754 12.5781 21.1632 11.9337 20.8216L11.6529 20.662C11.6527 20.6619 11.6525 20.6618 11.6523 20.6616C8.18977 18.6642 5.31496 15.7886 3.31773 12.3249L3.26947 12.2324C3.26614 12.1989 3.25605 12.1662 3.23971 12.1365C2.96175 11.6315 2.13225 10.054 1.41707 7.98548C0.700995 5.91437 0.106176 3.36973 0.280713 0.923822C0.295041 0.754644 0.368408 0.595906 0.487959 0.475422C0.605363 0.3571 0.759933 0.283101 0.925418 0.265742H6.43789C6.4509 0.265742 6.46389 0.264727 6.47674 0.262706C6.61713 0.240625 6.76055 0.247376 6.89825 0.282552C7.03595 0.317727 7.16506 0.38059 7.2777 0.467315C7.39035 0.55404 7.48417 0.662812 7.55343 0.787004C7.6227 0.911196 7.66597 1.04821 7.68059 1.18968L7.68055 1.18969L7.68113 1.19446C7.85125 2.57904 8.09298 3.95385 8.40537 5.31339C8.40717 5.32123 8.40935 5.32898 8.4119 5.33661C8.5083 5.62516 8.52861 5.93373 8.47089 6.23244C8.41418 6.52591 8.28403 6.80011 8.09272 7.02945C7.79106 7.30289 7.17863 7.9346 6.47087 8.66465C6.24339 8.8993 6.00606 9.1441 5.76604 9.39043C5.69226 9.46614 5.67408 9.58007 5.72063 9.67498C7.55802 13.4216 10.5855 16.4528 14.3291 18.294C14.4244 18.3408 14.5388 18.3224 14.6146 18.248C15.6369 17.2446 16.6235 16.2705 16.9765 15.9112C17.2065 15.718 17.482 15.5866 17.7769 15.5296C18.0755 15.4718 18.3838 15.4922 18.6722 15.5886C18.6798 15.5911 18.6876 15.5933 18.6954 15.5951C20.0522 15.9072 21.4242 16.1491 22.8059 16.3197Z" fill="#FF8E29" stroke="#FF8E29" stroke-width="0.5" stroke-linecap="round" stroke-linejoin="round"/>
</g>
<defs>
<clipPath id="clip0_1197_10661">
<rect width="24" height="24" fill="white"/>
</clipPath>
</defs>
</svg>
